<?xml version="1.0" standalone="no"?>
<!DOCTYPE svg PUBLIC "-//W3C//DTD SVG 1.1//EN" "http://www.w3.org/Graphics/SVG/1.1/DTD/svg11.dtd" >
<svg>
<metadata>
Created by FontForge 20120731 at Mon May 28 04:40:17 2018
 By www
Copyright (c) 2007 Linotype GmbH, www.linotype.com. All rights reserved. This font software may not be reproduced, modified, disclosed or transferred without the express written approval of Linotype GmbH. Morris Sans is a trademark of Linotype GmbH and may be registered in certain jurisdictions. This typeface is original artwork of Morris Fuller Benton. The design may be protected in certain jurisdictions.
</metadata>
<defs>
<font id="MorrisSansW01-Heavy" horiz-adv-x="1031" >
  <font-face 
    font-family="MorrisSansW01-Heavy"
    font-weight="400"
    font-stretch="normal"
    units-per-em="1000"
    panose-1="2 1 9 5 2 2 2 8 1 4"
    ascent="800"
    descent="-200"
    x-height="534"
    cap-height="680"
    bbox="-161 -211 1821 1048"
    underline-thickness="50"
    underline-position="-100"
    unicode-range="U+000D-E308"
  />
<missing-glyph horiz-adv-x="375" 
 />
    <glyph glyph-name=".notdef" horiz-adv-x="375" 
 />
    <glyph glyph-name=".null" horiz-adv-x="0" 
 />
    <glyph glyph-name="uni000D" unicode="&#xd;" horiz-adv-x="0" 
 />
    <glyph glyph-name="space" unicode=" " horiz-adv-x="375" 
 />
    <glyph glyph-name="exclam" unicode="!" horiz-adv-x="467" 
d="M147 232l-55 448h286l-60 -448h-171zM349 44q0 -28 -10 -36t-44 -8h-122q-34 0 -44 8t-10 36v75q0 28 10 36t44 8h122q34 0 44 -8t10 -36v-75z" />
    <glyph glyph-name="quotedbl" unicode="&#x22;" horiz-adv-x="803" 
d="M639 680q34 0 44 -8t10 -36v-162l-97 -198h-40l-97 198v162q0 28 10 36t44 8h126v0zM290 680q34 0 44 -8t10 -36v-162l-97 -198h-40l-97 198v162q0 28 10 36t44 8h126v0z" />
    <glyph glyph-name="numbersign" unicode="#" horiz-adv-x="951" 
d="M502 126h-165l-33 -126h-159l33 126h-138l39 145h137l36 138h-137l39 145h137l33 126h159l-33 -126h165l33 126h159l-33 -126h137l-38 -145h-138l-36 -138h137l-38 -145h-137l-33 -126h-159zM375 271h165l36 138h-165z" />
    <glyph glyph-name="dollar" unicode="$" 
d="M291 281q-81 0 -116 33.5t-35 99.5v110q0 71 40 113.5t121 42.5h135v137h183v-137h118q50 0 83.5 -11t53.5 -30.5t28.5 -46t8.5 -57.5q0 -12 -0.5 -19.5t-1.5 -14.5l-202 -37v76h-344v-119h400q31 0 59 -6.5t49.5 -21.5t34 -39.5t12.5 -61.5v-129q0 -31 -12 -60.5
t-35 -52t-57.5 -36.5t-80.5 -14h-114v-174h-183v174h-141q-47 0 -81 12.5t-56.5 33.5t-33.5 48.5t-11 58.5q0 9 0.5 16.5t1.5 12.5l2 12l209 36v-75h369v126h-404z" />
    <glyph glyph-name="percent" unicode="%" horiz-adv-x="1374" 
d="M1002 690l-442 -700h-189l443 700h188zM518 427q0 -28 -6.5 -50.5t-21.5 -38.5t-41 -24.5t-65 -8.5h-160q-39 0 -65 8.5t-41.5 24.5t-21.5 38.5t-6 50.5v135q0 28 5.5 50t20.5 37t40.5 23t66.5 8h160q40 0 66 -8t41.5 -23t21.5 -37t6 -50v-135zM371 438v118h-133v-118
h133zM1284 122q0 -28 -6.5 -50.5t-21.5 -38.5t-41 -24.5t-65 -8.5h-160q-39 0 -65 8.5t-41.5 24.5t-21.5 38.5t-6 50.5v135q0 28 5.5 50t20.5 37t40.5 23t66.5 8h160q40 0 66 -8t41.5 -23t21.5 -37t6 -50v-135zM1137 133v118h-133v-118h133z" />
    <glyph glyph-name="ampersand" unicode="&#x26;" horiz-adv-x="1061" 
d="M263 0q-34 0 -67 4t-58.5 19t-41.5 44t-16 79v86q0 22 9.5 40.5t31.5 37.5t57.5 41t86.5 51q-9 7 -18.5 16t-17.5 21.5t-13.5 29t-5.5 38.5v65q0 31 12.5 51.5t35 33t53 18t66.5 5.5h254q55 0 89.5 -11.5t54 -33.5t26 -54.5t6.5 -74.5v-19l-202 -42v95h-172v-47l271 -218
l167 151l119 -97l-165 -148l216 -181h-246l-87 75q-19 -16 -36 -30q-14 -12 -29.5 -24.5t-24.5 -20.5h-355zM547 155l25 19l-171 134l-98 -67v-86h244z" />
    <glyph glyph-name="quotesingle" unicode="'" horiz-adv-x="454" 
d="M290 680q34 0 44 -8t10 -36v-162l-97 -198h-40l-97 198v162q0 28 10 36t44 8h126v0z" />
    <glyph glyph-name="parenleft" unicode="(" horiz-adv-x="499" 
d="M434 708q-61 -75 -93.5 -166.5t-32.5 -187.5q0 -102 34 -198.5t97 -176.5h-207q-58 83 -90 179.5t-32 198.5q0 92 29 184t83 167h212z" />
    <glyph glyph-name="parenright" unicode=")" horiz-adv-x="509" 
d="M75 -21q61 75 93.5 166.5t32.5 187.5q0 102 -34 198.5t-97 176.5h207q58 -83 90 -179.5t32 -198.5q0 -92 -29 -184t-83 -167h-212z" />
    <glyph glyph-name="asterisk" unicode="*" horiz-adv-x="633" 
d="M415 721l-24 -154l134 72l48 -152l-173 -21l120 -118l-146 -99l-57 117l-58 -118l-144 103l121 115l-176 22l51 149l132 -70l-23 154h195z" />
    <glyph glyph-name="plus" unicode="+" horiz-adv-x="670" 
d="M247 20v170h-167v160h167v164h176v-164h167v-160h-167v-170h-176z" />
    <glyph glyph-name="comma" unicode="," horiz-adv-x="449" 
d="M187 -181h-77l113 201h-59q-34 0 -44 8t-10 36v115q0 28 10 36t44 8h122q34 0 44 -8t10 -36v-162z" />
    <glyph glyph-name="hyphen" unicode="-" horiz-adv-x="566" 
d="M90 386h386v-165h-386v165z" />
    <glyph glyph-name="period" unicode="." horiz-adv-x="450" 
d="M340 44q0 -28 -10 -36t-44 -8h-122q-34 0 -44 8t-10 36v135q0 28 10 36t44 8h122q34 0 44 -8t10 -36v-135z" />
    <glyph glyph-name="slash" unicode="/" horiz-adv-x="479" 
d="M302 696h192l-320 -699h-189z" />
    <glyph glyph-name="zero" unicode="0" 
d="M333 0q-54 0 -96 14.5t-70 40t-42.5 61t-14.5 77.5v311q0 86 57 131t166 45h365q109 0 166 -45t57 -131v-311q0 -42 -14.5 -77.5t-43 -61t-70 -40t-95.5 -14.5h-365zM698 190v312h-365v-312h365z" />
    <glyph glyph-name="one" unicode="1" 
d="M232 155h213v353h-173v109l396 63v-525h199v-155h-635v155z" />
    <glyph glyph-name="two" unicode="2" 
d="M924 196q5 -15 5 -39q0 -32 -11.5 -60.5t-34 -50t-56 -34t-78.5 -12.5h-629v84q0 37 23 61t57 44q113 69 220.5 135t221.5 136v80h-292v-156l-202 46v75q0 42 7 75t26 55t53 33.5t88 11.5h381q81 0 121.5 -42.5t40.5 -113.5v-42q0 -47 -18.5 -71.5t-53.5 -47.5l-361 -219
q14 3 31.5 5t35.5 3.5t33.5 2t25.5 0.5h158v80z" />
    <glyph glyph-name="three" unicode="3" 
d="M890 465q0 -27 -10 -46.5t-28 -33t-43.5 -22.5t-56.5 -13q81 -2 125 -38t44 -87v-77q0 -50 -16 -79.5t-41.5 -44.5t-59 -19.5t-67.5 -4.5h-456q-46 0 -80 12.5t-56.5 33.5t-33.5 49t-11 59q0 12 1 25t5 27l207 36v-87h337q28 0 38 10.5t10 33.5v37q0 28 -14 34t-34 6
h-203v149h164q14 0 25 1t18.5 5t11.5 12t4 22v35q0 28 -15 34t-41 6h-274v-95l-213 43v35q0 70 40 113.5t121 43.5h452q30 0 57 -6t48 -22t33 -44t12 -72v-71z" />
    <glyph glyph-name="four" unicode="4" 
d="M948 283v-155h-158v-136h-223v136h-497v132l493 420h227v-397h158zM567 471q-30 -25 -56.5 -47.5t-52.5 -45.5t-55 -47t-63 -51h227v191z" />
    <glyph glyph-name="five" unicode="5" 
d="M132 179q112 -26 202.5 -35t165.5 -9q58 0 97.5 5t62.5 15t33 24.5t10 34.5q0 39 -41.5 63t-139.5 24q-47 0 -92.5 -3t-91.5 -8t-94.5 -12t-101.5 -15l43 417h647l-26 -140h-430l-12 -103q47 8 96 11t93 3q70 0 137.5 -7.5t120 -32.5t84.5 -71.5t32 -125.5
q0 -55 -18.5 -93.5t-50.5 -64.5t-74 -41.5t-89.5 -23t-97.5 -9.5t-97 -2q-73 0 -151 5t-167 20z" />
    <glyph glyph-name="six" unicode="6" 
d="M798 549q-21 4 -39.5 6.5t-36.5 4t-37 2.5t-42 1q-45 0 -90 -9t-83.5 -26.5t-67.5 -43.5t-42 -59q63 8 128.5 9t130.5 1q51 0 101.5 -5t91 -22.5t66 -50t25.5 -87.5v-110q0 -33 -14 -62t-41.5 -50.5t-69 -34.5t-96.5 -13h-355q-63 0 -104.5 16t-65.5 44t-34 66t-10 81v88
q0 88 27 152.5t70.5 109t97.5 72t108 43t101.5 20.5t78.5 5q22 0 38.5 -1t31.5 -3zM557 288q-55 0 -109.5 -1.5t-110.5 -9.5l-1.5 -25.5t-0.5 -20.5q0 -45 17.5 -60.5t47.5 -15.5h240q16 0 28 8.5t12 36.5v43q0 17 -9 26t-25 13.5t-38.5 5t-50.5 0.5z" />
    <glyph glyph-name="seven" unicode="7" 
d="M119 680h803v-116l-347 -572h-248l339 543h-324v-145l-223 39v251z" />
    <glyph glyph-name="eight" unicode="8" 
d="M409 540q-5 0 -14.5 -1t-18.5 -5t-16 -12t-7 -22v-35q0 -14 4 -22t11.5 -12t18.5 -5t25 -1h207q14 0 25 1t18.5 5t11.5 12t4 22v35q0 14 -7 22t-16 12t-18.5 5t-14.5 1h-213zM373 276q-20 0 -34 -6t-14 -34v-37q0 -23 10 -33.5t38 -10.5h285q28 0 38 10.5t10 33.5v37
q0 28 -14 34t-34 6h-285zM748 680q30 0 57 -6t48 -22t33 -44t12 -72v-71q0 -27 -10 -46.5t-28 -33t-43.5 -22.5t-56.5 -13q81 -2 125 -38t44 -87v-77q0 -50 -16 -79.5t-41.5 -44.5t-59 -19.5t-67.5 -4.5h-459q-35 0 -68 4.5t-58.5 19.5t-41.5 44.5t-16 79.5v77q0 51 44 87
t125 38q-62 9 -100 35.5t-38 79.5v71q0 44 12 72t33 44t48 22t57 6h465z" />
    <glyph glyph-name="nine" unicode="9" 
d="M193 131q29 -4 49 -6.5t39.5 -4t44 -2.5t62.5 -1q45 0 90 9t83.5 26.5t67.5 43.5t42 59q-63 -8 -128.5 -9t-130.5 -1q-51 0 -101.5 5t-91 22.5t-66 50t-25.5 87.5v110q0 33 14 62t41.5 50.5t69 34.5t96.5 13h355q63 0 104.5 -16t65.5 -44t34 -66t10 -81v-88
q0 -88 -27.5 -152.5t-72 -109.5t-100.5 -73t-114 -43.5t-112.5 -21t-95.5 -5.5q-22 0 -38.5 1t-31.5 3zM474 392q55 0 109.5 1.5t110.5 9.5q1 17 1.5 33t0.5 28q0 45 -17.5 60.5t-47.5 15.5h-240q-16 0 -28 -8.5t-12 -36.5v-58q0 -17 9 -26t25 -13.5t38.5 -5t50.5 -0.5z" />
    <glyph glyph-name="colon" unicode=":" horiz-adv-x="450" 
d="M340 44q0 -28 -10 -36t-44 -8h-122q-34 0 -44 8t-10 36v135q0 28 10 36t44 8h122q34 0 44 -8t10 -36v-135zM340 416q0 -28 -10 -36t-44 -8h-122q-34 0 -44 8t-10 36v135q0 28 10 36t44 8h122q34 0 44 -8t10 -36v-135z" />
    <glyph glyph-name="semicolon" unicode=";" horiz-adv-x="449" 
d="M340 416q0 -28 -10 -36t-44 -8h-122q-34 0 -44 8t-10 36v135q0 28 10 36t44 8h122q34 0 44 -8t10 -36v-135zM187 -181h-77l113 201h-59q-34 0 -44 8t-10 36v115q0 28 10 36t44 8h122q34 0 44 -8t10 -36v-162z" />
    <glyph glyph-name="less" unicode="&#x3c;" horiz-adv-x="670" 
d="M560 149l-62 -149l-403 170v194l402 170l62 -149l-282 -118z" />
    <glyph glyph-name="equal" unicode="=" horiz-adv-x="670" 
d="M80 50v160h510v-160h-510zM80 324v160h510v-160h-510z" />
    <glyph glyph-name="greater" unicode="&#x3e;" horiz-adv-x="670" 
d="M393 267l-282 118l62 149l402 -170v-194l-403 -170l-62 149z" />
    <glyph glyph-name="question" unicode="?" horiz-adv-x="825" 
d="M527 303v-71h-224v131l239 108v69h-280v-88l-202 31v22q0 42 7 75t25.5 55t52.5 33.5t88 11.5h370q81 0 121.5 -42.5t40.5 -113.5v-113zM530 44q0 -28 -10 -36t-44 -8h-122q-34 0 -44 8t-10 36v75q0 28 10 36t44 8h122q34 0 44 -8t10 -36v-75z" />
    <glyph glyph-name="at" unicode="@" horiz-adv-x="1381" 
d="M826 71q-13 -27 -48 -49t-89 -22h-108q-62 0 -102 11t-63 34.5t-32 59t-9 84.5v136q0 49 9 84.5t32 59t63 34.5t102 11h119q32 0 54 -11.5t36 -27t22 -31.5l13 -26h4l19 96h159v-378h118v361q0 57 -31 77t-96 20h-618q-25 0 -46 -4.5t-36 -15.5t-23.5 -30t-8.5 -47v-262
q0 -94 1 -204q0 -51 29 -75.5t98 -23.5h663l-28 -132h-679q-74 0 -122 10t-76.5 32.5t-40 59.5t-11.5 91v539q0 52 16 87.5t46 58t74.5 32.5t101.5 10h704q57 0 101.5 -10t75 -32.5t46.5 -59t16 -89.5v-424q0 -30 -11 -50t-29.5 -32.5t-42.5 -17.5t-51 -5h-225
q-31 0 -48.5 7t-26.5 17.5t-12.5 23t-4.5 23.5h-4zM572 136h181q26 0 41.5 13.5t15.5 52.5v119q0 39 -15.5 52.5t-41.5 13.5h-181v-251z" />
    <glyph glyph-name="A" unicode="A" horiz-adv-x="1034" 
d="M703 120h-414l-62 -120h-222l381 680h235l408 -680h-258zM369 280h247l-128 220z" />
    <glyph glyph-name="B" unicode="B" horiz-adv-x="1018" 
d="M652 155q21 0 32 7.5t11 25.5v59q0 20 -11 27t-32 7h-329v-126h329zM689 509q0 19 -11.5 25t-37.5 6h-317v-119h317q26 0 37.5 6.5t11.5 26.5v55zM912 453q0 -26 -9.5 -44t-23.5 -30.5t-31 -19.5t-33 -10v-2q16 -5 34 -11t33.5 -18.5t25.5 -35t10 -61.5v-91
q0 -68 -46 -99t-131 -31h-641v680h641q43 0 75.5 -6t53.5 -21.5t31.5 -41t10.5 -64.5v-94z" />
    <glyph glyph-name="C" unicode="C" horiz-adv-x="1026" 
d="M313 0q-54 0 -96 14t-70 39.5t-42.5 61t-14.5 77.5v313q0 47 17 80t47 54t70.5 31t87.5 10h451q50 0 83.5 -11t53.5 -30.5t28 -46.5t8 -59v-84l-223 -32v95h-400v-332h400v113l223 -47v-79q0 -32 -11.5 -62.5t-35 -53.5t-60 -37t-86.5 -14h-430z" />
    <glyph glyph-name="D" unicode="D" horiz-adv-x="1072" 
d="M100 680h465q123 0 206.5 -22t135 -64t73.5 -103t22 -139q0 -80 -22 -145t-73.5 -111t-135 -71t-206.5 -25h-465v680zM565 170q59 0 100.5 12t67.5 36t37.5 58.5t11.5 79.5q0 82 -50.5 123t-166.5 41h-242v-350h242z" />
    <glyph glyph-name="E" unicode="E" horiz-adv-x="968" 
d="M100 680h803v-160h-580v-94h343v-160h-343v-96h585v-170h-808v680z" />
    <glyph glyph-name="F" unicode="F" horiz-adv-x="903" 
d="M100 680h783v-160h-560v-134h323v-160h-323v-226h-223v680z" />
    <glyph glyph-name="G" unicode="G" horiz-adv-x="1026" 
d="M936 167q0 -32 -11.5 -62.5t-35 -53.5t-60 -37t-86.5 -14h-430q-54 0 -96 14t-70 39.5t-42.5 61t-14.5 77.5v313q0 47 17 80t47 54t70.5 31t87.5 10h451q50 0 83.5 -11t53.5 -30.5t28 -46.5t8 -59v-51l-223 -32v70h-400v-350h400v76h-206v150h429v-229z" />
    <glyph glyph-name="H" unicode="H" horiz-adv-x="1054" 
d="M100 680h223v-254h408v254h223v-680h-223v266h-408v-266h-223v680z" />
    <glyph glyph-name="I" unicode="I" horiz-adv-x="423" 
d="M100 680h223v-680h-223v680z" />
    <glyph glyph-name="J" unicode="J" horiz-adv-x="908" 
d="M303 361v-192h292v511h223v-544q0 -45 -12.5 -72t-36 -41t-55.5 -18.5t-71 -4.5h-396q-79 0 -123 38t-44 98v181z" />
    <glyph glyph-name="K" unicode="K" horiz-adv-x="1033" 
d="M100 680h223v-282l381 282h294l-443 -320l498 -360h-320l-410 302v-302h-223v680z" />
    <glyph glyph-name="L" unicode="L" horiz-adv-x="901" 
d="M100 680h223v-510h518v-170h-741v680z" />
    <glyph glyph-name="M" unicode="M" horiz-adv-x="1171" 
d="M100 680h213l259 -328l261 328h238v-680h-223v380l-243 -303h-73l-234 296v-373h-198v680z" />
    <glyph glyph-name="N" unicode="N" horiz-adv-x="1036" 
d="M100 680h195l443 -407v407h198v-680h-200l-438 403v-403h-198v680z" />
    <glyph glyph-name="O" unicode="O" horiz-adv-x="1071" 
d="M313 0q-54 0 -96 14.5t-70 40t-42.5 61t-14.5 77.5v311q0 86 57 131t166 45h445q109 0 166 -45t57 -131v-311q0 -42 -14.5 -77.5t-43 -61t-70 -40t-95.5 -14.5h-445zM758 190v312h-445v-312h445z" />
    <glyph glyph-name="P" unicode="P" horiz-adv-x="1022" 
d="M100 680h661q43 0 75.5 -6t53.5 -21.5t31.5 -41t10.5 -64.5v-191q0 -39 -12.5 -64.5t-34.5 -40t-50.5 -20t-59.5 -5.5h-452v-226h-223v680zM648 366q17 0 29 1t19 5.5t10 15t3 28.5v70q0 19 -3 30t-9.5 16t-18.5 6.5t-30 1.5h-325v-174h325z" />
    <glyph glyph-name="Q" unicode="Q" horiz-adv-x="1071" 
d="M729 0q35 -68 57.5 -109.5t34.5 -64.5h-226l-70 174h-212q-54 0 -96 14.5t-70 40t-42.5 61t-14.5 77.5v311q0 86 57 131t166 45h445q109 0 166 -45t57 -131v-311q0 -42 -14.5 -77.5t-43 -61t-70 -40t-95.5 -14.5h-29zM448 190l-36 90l148 52q20 -39 37 -74.5t34 -67.5
h127v312h-445v-312h135z" />
    <glyph glyph-name="R" unicode="R" horiz-adv-x="1022" 
d="M100 680h661q43 0 75.5 -6t53.5 -21.5t31.5 -41t10.5 -64.5v-191q0 -39 -12.5 -64.5t-34.5 -40t-50.5 -20t-59.5 -5.5h-73l276 -226h-295l-248 226h-112v-226h-223v680zM648 366q17 0 29 1t19 5.5t10 15t3 28.5v70q0 19 -3 30t-9.5 16t-18.5 6.5t-30 1.5h-325v-174h325z
" />
    <glyph glyph-name="S" unicode="S" horiz-adv-x="1010" 
d="M268 281q-81 0 -116 33.5t-35 99.5v110q0 71 40 113.5t121 42.5h461q50 0 83.5 -11t53.5 -30.5t28.5 -46t8.5 -57.5q0 -12 -0.5 -19.5t-1.5 -14.5l-202 -37v76h-369v-119h425q31 0 59 -6.5t49.5 -21.5t34 -39.5t12.5 -61.5v-129q0 -31 -12 -60.5t-35 -52t-57.5 -36.5
t-80.5 -14h-463q-47 0 -81 12.5t-56.5 33.5t-33.5 48.5t-11 58.5q0 9 0.5 18t3.5 23l209 36v-75h394v126h-429z" />
    <glyph glyph-name="T" unicode="T" horiz-adv-x="834" 
d="M535 0h-230v529h-285v151h794v-151h-279v-529z" />
    <glyph glyph-name="U" unicode="U" horiz-adv-x="1021" 
d="M931 193q0 -42 -14.5 -77.5t-43 -61t-70 -40t-95.5 -14.5h-395q-54 0 -96 14.5t-70 40t-42.5 61t-14.5 77.5v487h223v-490h395v490h223v-487z" />
    <glyph glyph-name="V" unicode="V" horiz-adv-x="1064" 
d="M762 680h242l-351 -680h-235l-368 680h268l228 -470z" />
    <glyph glyph-name="W" unicode="W" horiz-adv-x="1342" 
d="M30 680h249l153 -470l130 470h258l138 -470l129 470h225l-233 -680h-251l-141 489l-136 -489h-254z" />
    <glyph glyph-name="X" unicode="X" horiz-adv-x="1036" 
d="M960 680l-318 -316q43 -42 91 -89t96.5 -94t96.5 -93.5t90 -87.5h-311l-203 222q-47 -52 -100 -111t-98 -111h-275l327 343q-38 39 -81.5 82.5l-87.5 87.5t-87 86.5t-80 80.5h305l173 -197q21 22 44 47.5t47 51.5t47 51t43 47h281z" />
    <glyph glyph-name="Y" unicode="Y" horiz-adv-x="1012" 
d="M619 0h-223v309l-351 371h283l190 -213q48 53 96.5 107t95.5 106h257l-348 -371v-309z" />
    <glyph glyph-name="Z" unicode="Z" horiz-adv-x="893" 
d="M826 601q-110 -112 -181.5 -184t-116.5 -116.5t-70 -67.5t-43 -36q-9 -8 -18 -15.5t-20 -16.5q28 2 57 3.5t55 1.5h339v-170h-773v89q86 87 148 149t105 104.5t70.5 69t44.5 42t26.5 23.5t17.5 15q11 8 24 16.5t24 16.5q-26 -2 -59.5 -3.5t-57.5 -1.5h-310v160h738v-79z
" />
    <glyph glyph-name="bracketleft" unicode="[" horiz-adv-x="492" 
d="M100 701h370v-120h-172v-473h174v-120h-372v713z" />
    <glyph glyph-name="backslash" unicode="\" horiz-adv-x="499" 
d="M514 -3h-209l-320 699h212z" />
    <glyph glyph-name="bracketright" unicode="]" horiz-adv-x="492" 
d="M392 -12h-372v120h174v473h-172v120h370v-713z" />
    <glyph glyph-name="asciicircum" unicode="^" horiz-adv-x="693" 
d="M347 498l-112 -266h-175l190 448h194l189 -448h-175z" />
    <glyph glyph-name="underscore" unicode="_" horiz-adv-x="500" 
d="M0 -20h500v-134h-500v134z" />
    <glyph glyph-name="grave" unicode="`" horiz-adv-x="439" 
d="M247 805l117 -186h-168l-173 186h224z" />
    <glyph glyph-name="a" unicode="a" horiz-adv-x="812" 
d="M536 355q0 20 -7 36t-24.5 26.5t-47.5 16t-77 5.5q-31 0 -65 -2t-68.5 -7t-67.5 -15t-62 -25l49 137q52 20 118.5 28.5t138.5 8.5q81 0 139 -14.5t96 -45t56 -78t18 -113.5v-313h-162l-11 71h-4q-4 -8 -14 -20t-26 -23.5t-37.5 -19.5t-47.5 -8h-223q-70 0 -109 37
t-39 127v33q0 85 36.5 121.5t111.5 36.5h329zM535 230h-284v-94h206q41 0 59.5 16t18.5 45v33z" />
    <glyph glyph-name="b" unicode="b" horiz-adv-x="832" 
d="M757 189q0 -49 -9 -84.5t-32 -59t-63 -34.5t-102 -11h-157q-31 0 -55 8t-40.5 19.5t-26.5 23.5t-13 20h-4l-11 -71h-159v750h197v-292h4q6 13 16.5 27t26.5 24.5t39 17.5t55 7h128q62 0 102 -11t63 -34.5t32 -59t9 -84.5v-156zM560 377h-221q-26 0 -41.5 -13.5
t-15.5 -52.5v-81q0 -39 15.5 -52.5t41.5 -13.5h221v213z" />
    <glyph glyph-name="c" unicode="c" horiz-adv-x="763" 
d="M515 303v84h-243v-233h246v72l175 -13v-59q0 -41 -7 -70t-29 -48t-63 -27.5t-109 -8.5h-203q-60 0 -99.5 10.5t-63.5 33t-34 57t-10 83.5v163q0 51 10 86.5t34 58t63.5 32.5t99.5 10h202q67 0 107.5 -7.5t62.5 -26.5t29 -50t7 -79v-35z" />
    <glyph glyph-name="d" unicode="d" horiz-adv-x="832" 
d="M75 345q0 49 9 84.5t32 59t63 34.5t102 11h128q32 0 55 -7t39 -17.5t26.5 -24.5t16.5 -27h4v292h197v-750h-159l-11 71h-4q-3 -8 -13 -20t-26.5 -23.5t-40.5 -19.5t-55 -8h-157q-62 0 -102 11t-63 34.5t-32 59t-9 84.5v156zM272 164h221q26 0 41.5 13.5t15.5 52.5v81
q0 39 -15.5 52.5t-41.5 13.5h-221v-213z" />
    <glyph glyph-name="e" unicode="e" horiz-adv-x="792" 
d="M272 328h263v76h-263v-76zM272 209v-20q0 -20 7.5 -35.5t26 -26.5t50.5 -16.5t81 -5.5q78 0 146 9.5t113 19.5l-46 -133q-29 -6 -56 -10t-55.5 -6.5t-61.5 -3.5t-75 -1q-78 0 -139 12t-103 39.5t-63.5 73.5t-21.5 114v128q0 55 11.5 91t36 57.5t64 30t95.5 8.5h268
q88 0 132.5 -34.5t44.5 -118.5v-54q0 -56 -37 -87t-109 -31h-309z" />
    <glyph glyph-name="f" unicode="f" horiz-adv-x="504" 
d="M318 514h118v-137h-118v-377h-197v377h-96v137h96v44q0 55 10 92t38.5 59.5t81 32t138.5 9.5q25 0 46 -3l64 -145q-21 13 -43 18t-49 5q-29 0 -46 -5t-27 -15.5t-13 -27.5t-3 -42v-22z" />
    <glyph glyph-name="g" unicode="g" horiz-adv-x="827" 
d="M747 40q0 -61 -16 -107.5t-57.5 -78.5t-113.5 -48.5t-184 -16.5q-63 0 -120.5 5t-95.5 16l-60 150q30 -10 64.5 -16.5t70.5 -11t72 -6.5t69 -2q47 0 80 4.5t54 15.5t30.5 29.5t9.5 46.5v89h-4q-13 -33 -48 -54t-89 -21h-126q-63 0 -103.5 11t-64 34t-32 58.5t-8.5 83.5
v124q0 49 9 84.5t32 59t63 34.5t102 11h172q26 0 46.5 -9t35.5 -23t25.5 -31t16.5 -33h4l19 96h146zM492 198q26 0 42 13.5t16 52.5v47q0 39 -15.5 52.5t-41.5 13.5h-221v-179h220z" />
    <glyph glyph-name="h" unicode="h" horiz-adv-x="806" 
d="M520 534q62 0 102 -11t63 -34.5t32 -59t9 -84.5v-345h-197v367h-190q-26 0 -41.5 -13.5t-15.5 -52.5v-301h-197v750h197v-312h4q4 13 14.5 30t27.5 31.5t41.5 24.5t58.5 10h92z" />
    <glyph glyph-name="i" unicode="i" horiz-adv-x="367" 
d="M85 534h197v-534h-197v534zM85 750h197v-151h-197v151z" />
    <glyph glyph-name="j" unicode="j" horiz-adv-x="367" 
d="M282 534v-534q0 -63 -11.5 -103.5t-35.5 -64.5t-61.5 -33.5t-89.5 -9.5q-62 0 -96 6t-50 11l-53 147q32 -14 68.5 -21.5t68.5 -7.5q19 0 31 2.5t19 11t10 23.5t3 39v534h197zM85 750h197v-151h-197v151z" />
    <glyph glyph-name="k" unicode="k" horiz-adv-x="756" 
d="M472 295l304 -295h-253l-237 239h-4v-239h-197v750h197v-426h4l194 210h223z" />
    <glyph glyph-name="l" unicode="l" horiz-adv-x="480" 
d="M292 214q0 -27 3.5 -44t14 -27.5t30 -14.5t51.5 -4q27 0 50.5 5t33.5 10l-66 -147q-10 -5 -37 -8.5t-69 -3.5q-56 0 -95 8t-64.5 28.5t-37 55.5t-11.5 90v588h197v-536z" />
    <glyph glyph-name="m" unicode="m" horiz-adv-x="1135" 
d="M850 534q62 0 101.5 -11t62.5 -34t32 -58.5t9 -84.5v-346h-197v367h-133q-21 0 -40 -15.5t-19 -50.5v-301h-197v367h-142q-21 0 -35.5 -15.5t-14.5 -50.5v-301h-197v534h147l19 -96h4q6 14 15.5 31t24.5 31.5t35.5 24t49.5 9.5h135q54 0 91.5 -23.5t51.5 -66.5q3 7 12 22
t24.5 30t38.5 26.5t54 11.5h68z" />
    <glyph glyph-name="n" unicode="n" horiz-adv-x="801" 
d="M515 534q62 0 102 -11t63 -34.5t32 -59t9 -84.5v-345h-197v367h-190q-26 0 -41.5 -13.5t-15.5 -52.5v-301h-197v534h147l19 -96h4q4 10 12.5 26t22.5 31.5t36 27t54 11.5h140z" />
    <glyph glyph-name="o" unicode="o" horiz-adv-x="822" 
d="M747 184q0 -45 -9.5 -79.5t-32.5 -58t-63.5 -35t-101.5 -11.5h-258q-62 0 -102 11.5t-63.5 35t-32.5 58t-9 79.5v162q0 49 9 84.5t32 58.5t63.5 34t102.5 11h258q62 0 102 -11t63.5 -33.5t32.5 -58.5t9 -85v-162zM550 164v213h-278v-213h278z" />
    <glyph glyph-name="p" unicode="p" horiz-adv-x="827" 
d="M546 534q62 0 102 -11t63 -34.5t32 -59t9 -84.5v-156q0 -49 -9 -84.5t-32 -59t-63 -34.5t-102 -11h-128q-54 0 -89 22t-48 49h-4v-271h-197v734h159l19 -96h4q4 10 12.5 26t22.5 31.5t36 27t54 11.5h159zM555 377h-221q-26 0 -41.5 -13.5t-15.5 -52.5v-81
q0 -39 15.5 -52.5t41.5 -13.5h221v213z" />
    <glyph glyph-name="q" unicode="q" horiz-adv-x="827" 
d="M440 534q32 0 54 -11.5t36 -27t22 -31.5l13 -26h4l19 96h159v-734h-197v271h-4q-13 -27 -48 -49t-89 -22h-128q-62 0 -102 11t-63 34.5t-32 59t-9 84.5v156q0 49 9 84.5t32 59t63 34.5t102 11h159zM272 164h221q26 0 41.5 13.5t15.5 52.5v81q0 39 -15.5 52.5t-41.5 13.5
h-221v-213z" />
    <glyph glyph-name="r" unicode="r" horiz-adv-x="548" 
d="M393 374q-65 0 -90.5 -39.5t-25.5 -113.5v-221h-197v534h140l19 -96h4q4 10 13.5 29t26 38t41.5 33.5t61 14.5q39 0 58.5 -7.5t27.5 -16.5l72 -185q-21 11 -58 20.5t-92 9.5z" />
    <glyph glyph-name="s" unicode="s" horiz-adv-x="785" 
d="M242 176v-50h270v88h-270q-83 0 -120 33t-37 81v49q0 32 6.5 60.5t24 50t47.5 34t78 12.5h301q42 0 71.5 -9.5t48 -26t27.5 -38t9 -45.5v-30l-175 -19v48h-241v-81h271q71 0 114 -29t43 -89v-81q0 -60 -41.5 -97t-136.5 -37h-321q-60 0 -98 28.5t-38 80.5q0 14 0.5 25.5
t2.5 22.5z" />
    <glyph glyph-name="t" unicode="t" horiz-adv-x="578" 
d="M372 -20q-71 0 -115 10.5t-69.5 32.5t-34.5 56.5t-9 82.5v215h-124v137h124v110l197 49v-159h196v-137h-195v-164q0 -24 2 -41t11.5 -27.5t29 -15.5t55.5 -5q18 0 32 1t26.5 3.5t25.5 6.5t29 9l-69 -154q-16 -3 -26.5 -5t-22 -3t-26 -1.5t-37.5 -0.5z" />
    <glyph glyph-name="u" unicode="u" horiz-adv-x="766" 
d="M286 0q-62 0 -102 11t-63 34.5t-32 59t-9 84.5v345h197v-367h155q26 0 41.5 13.5t15.5 52.5v301h197v-534h-147l-11 71h-4q-5 -10 -15.5 -22t-26.5 -23t-37 -18.5t-45 -7.5h-114z" />
    <glyph glyph-name="v" unicode="v" horiz-adv-x="768" 
d="M538 534h225l-256 -534h-261l-241 534h238l142 -363z" />
    <glyph glyph-name="w" unicode="w" horiz-adv-x="1151" 
d="M5 534h228l132 -296l139 296h163l147 -306l128 306h204l-263 -534h-155l-152 306l-145 -306h-159z" />
    <glyph glyph-name="x" unicode="x" horiz-adv-x="833" 
d="M269 0h-258l277 260l-278 274h275l123 -145l136 145h260l-268 -260l287 -274h-277l-140 151z" />
    <glyph glyph-name="y" unicode="y" horiz-adv-x="768" 
d="M246 0l-241 534h238l142 -363l153 363h225l-352 -734h-230l141 200h-76z" />
    <glyph glyph-name="z" unicode="z" horiz-adv-x="727" 
d="M45 119l295 228q14 11 39.5 27t45.5 27q-15 -2 -37.5 -4t-47.5 -4t-51 -3t-48 -1h-160v145h584v-121l-11 -9.5t-29.5 -24.5t-42 -34t-47.5 -39l-130 -106q-4 -3 -14 -11t-22.5 -17.5t-24.5 -18t-19 -13.5q32 5 75.5 9t83.5 4h183v-153h-622v119z" />
    <glyph glyph-name="braceleft" unicode="{" horiz-adv-x="445" 
d="M220 274q48 -8 79 -44.5t31 -99.5v-118q0 -26 10 -40t25 -21.5t32.5 -9t32.5 -1.5v-140q-83 0 -136.5 11.5t-85 32.5t-44 51t-12.5 67v143q0 31 -11.5 51t-30.5 31t-43.5 15t-51.5 4v140q27 0 51.5 3t43.5 13.5t30.5 30.5t11.5 53v143q0 37 12.5 67t44 51t85 32t136.5 11
v-140q-15 0 -32.5 -1.5t-32.5 -8.5t-25 -21.5t-10 -39.5v-118q0 -56 -31 -95.5t-79 -49.5v-2z" />
    <glyph glyph-name="bar" unicode="|" horiz-adv-x="367" 
d="M85 750h197v-950h-197v950z" />
    <glyph glyph-name="braceright" unicode="}" horiz-adv-x="445" 
d="M225 276q-48 10 -79 49.5t-31 95.5v118q0 25 -10 39.5t-25 21.5t-32.5 8.5t-32.5 1.5v140q83 0 136.5 -11t85 -32t44 -51t12.5 -67v-143q0 -33 11.5 -53t30.5 -30.5t43.5 -13.5t51.5 -3v-140q-27 0 -51.5 -4t-43.5 -15t-30.5 -31t-11.5 -51v-143q0 -37 -12.5 -67t-44 -51
t-85 -32.5t-136.5 -11.5v140q15 0 32.5 1.5t32.5 9t25 21.5t10 40v118q0 63 31 99.5t79 44.5v2z" />
    <glyph glyph-name="asciitilde" unicode="~" horiz-adv-x="668" 
d="M592 389q-2 -37 -15.5 -71.5t-36 -60.5t-54 -42t-68.5 -16q-29 0 -51 7t-39 16t-31.5 16t-28.5 7q-37 0 -53.5 -11t-17.5 -44h-120q0 34 12.5 68.5t35 61.5t54 44t69.5 17q29 0 50 -7.5t39 -16.5t34.5 -16.5t35.5 -7.5q37 0 51 14.5t14 41.5h120z" />
    <glyph glyph-name="uni00A0" unicode="&#xa0;" horiz-adv-x="375" 
 />
    <glyph glyph-name="exclamdown" unicode="&#xa1;" horiz-adv-x="467" 
d="M323.018 248.028l54.9941 -447.945h-285.966l59.9932 447.945h170.979zM121.043 436.006q0 27.9961 9.99805 35.9951q9.99902 7.99902 43.9951 7.99902h121.985q33.9951 0 43.9941 -7.99902t9.99902 -35.9951v-74.9912q0 -27.9971 -9.99902 -35.9961t-43.9941 -7.99902
h-121.985q-33.9961 0 -43.9951 7.99902q-9.99805 7.99902 -9.99805 35.9961v74.9912z" />
    <glyph glyph-name="cent" unicode="&#xa2;" 
d="M647 263v74h-56l-62 -173h121v62l175 -13v-29q0 -56 -6.5 -91.5t-28 -56t-62.5 -28.5t-111 -8h-146l-46 -131h-68l45 131q-56 1 -93.5 12t-60 33.5t-32 56.5t-9.5 82v123q0 51 10 86.5t34 58t63.5 32.5t99.5 10h160l42 119h73l-43 -120q58 -1 92.5 -9.5t53 -27.5
t24.5 -49.5t6 -75.5v-35zM404 164h55l61 173h-116v-173z" />
    <glyph glyph-name="sterling" unicode="&#xa3;" 
d="M99 146q57 0 95 23t38 68v32h-137v136h126q-4 14 -8.5 34.5t-4.5 49.5q0 46 13 81.5t44.5 60t83 37t129.5 12.5h237q55 0 89.5 -11.5t53.5 -33.5t26 -54t7 -74v-38l-202 -36v73q0 20 -8.5 27t-31.5 7h-150q-41 0 -57.5 -16t-16.5 -49q0 -19 5 -37t10 -29h180v-137h-175
q-2 -24 -5.5 -48.5t-10.5 -50.5q60 -14 122.5 -22.5t119.5 -8.5q29 0 43.5 9t14.5 41v62l214 -35q0 -7 1 -14q0 -6 0.5 -12t0.5 -10q0 -56 -17 -92.5t-50 -58.5t-81 -30.5t-109 -8.5q-91 0 -179 14t-169 40q-18 -13 -36.5 -24t-45 -18.5t-64.5 -11.5t-95 -4v157z" />
    <glyph glyph-name="currency" unicode="&#xa4;" 
d="M194 140l70 69v131l-70 64l139 140l70 -65q5 1 10.5 1h11.5h181h10.5t10.5 -1l71 65l139 -140l-70 -64v-131l70 -69l-139 -140l-66 66q-7 -1 -13 -1h-13h-181h-13.5t-12.5 1l-66 -66zM614 192v166h-197v-166h197z" />
    <glyph glyph-name="yen" unicode="&#xa5;" 
d="M629 175v-175h-223v175h-257v105h257v9l-46 51h-211v105h117l-211 235h283l190 -213q48 53 96.5 107t95.5 106h257l-209 -235h114v-105h-208l-45 -51v-9h253v-105h-253z" />
    <glyph glyph-name="brokenbar" unicode="&#xa6;" horiz-adv-x="367" 
d="M85 380v370h197v-370h-197zM85 -200v370h197v-370h-197z" />
    <glyph glyph-name="section" unicode="&#xa7;" 
d="M715 212v116h-399v-116h399zM110 293q0 43 27 69t72 38q-14 3 -28.5 9t-26.5 16.5t-20 26.5t-8 39v55q0 60 35 97t104 37h626v-130h-559v-94h455q27 0 51 -5.5t42.5 -18.5t29.5 -34.5t11 -52.5v-88q0 -43 -26.5 -69t-71.5 -38q13 -3 28 -9t27 -16.5t20 -26.5t8 -39v-68
q0 -27 -10 -52t-30 -44.5t-50 -31.5t-69 -12h-607v136h560v100h-460q-69 0 -99.5 28.5t-30.5 85.5v92z" />
    <glyph glyph-name="dieresis" unicode="&#xa8;" horiz-adv-x="442" 
d="M155 770h197v-151h-197v151zM475 770h197v-151h-197v151z" />
    <glyph glyph-name="copyright" unicode="&#xa9;" horiz-adv-x="1361" 
d="M350 0q-74 0 -122 10t-76.5 32.5t-40 59.5t-11.5 91v298q0 52 16 87.5t46 58t74.5 32.5t101.5 10h684q57 0 101.5 -10t75 -32.5t46.5 -59t16 -89.5v-295q0 -54 -11.5 -91t-40 -59.5t-76.5 -32.5t-122 -10h-661zM938 132q69 -1 98 23.5t29 75.5v225q0 28 -9 47t-25 30
t-37 15.5t-46 4.5h-538q-25 0 -46 -4.5t-36 -15.5t-23.5 -30t-8.5 -47v-141q0 -41 1 -84q0 -51 29 -75.5t98 -23.5h514zM522 204q-45 0 -68.5 22t-23.5 57v126q0 39 26.5 55.5t64.5 16.5h329q41 0 55.5 -17t14.5 -44v-25l-161 -24v36h-163v-125h163v37l161 -16v-31
q0 -26 -18.5 -47t-59.5 -21h-320z" />
    <glyph glyph-name="ordfeminine" unicode="&#xaa;" horiz-adv-x="812" 
d="M404.846 572.832q0 15.0889 -5.28711 27.1602t-18.5049 19.9932t-35.877 12.0713t-58.1592 4.14941q-23.4141 0 -49.0947 -1.50879t-51.7393 -5.28125q-26.0576 -3.77246 -50.9834 -11.3174q-24.9248 -7.54395 -46.8291 -18.8613l37.0107 103.36
q39.2754 15.0898 89.5039 21.502q50.2285 6.41309 104.61 6.41309q61.1797 0 104.988 -10.9395q43.8076 -10.9395 72.5098 -33.9502q28.7012 -23.0107 42.2969 -58.8477t13.5957 -85.6309v-236.145h-122.36l-8.30762 53.5664h-3.02148q-3.02148 -6.03613 -10.5742 -15.0889
q-7.55371 -9.05371 -19.6387 -17.7305q-12.085 -8.67578 -28.3242 -14.7119q-16.2383 -6.03516 -35.877 -6.03516h-168.434q-52.8721 0 -82.3291 27.915t-29.457 95.8154v24.8975q0 64.1289 27.5684 91.666q27.5693 27.5381 84.2178 27.5381h248.496zM404.091 478.524
h-214.508v-70.9189h155.594q30.9678 0 44.9404 12.0723q13.9736 12.0703 13.9736 33.9502v24.8965z" />
    <glyph glyph-name="guillemotleft" unicode="&#xab;" horiz-adv-x="794" 
d="M417 482l-151 -212l151 -213h-194l-153 213l153 212h194zM758 482l-152 -212l153 -213h-194l-155 213l154 212h194z" />
    <glyph glyph-name="logicalnot" unicode="&#xac;" horiz-adv-x="795" 
d="M148 465h499v-314h-155v179h-344v135z" />
    <glyph glyph-name="uni00AD" unicode="&#xad;" horiz-adv-x="566" 
d="M90 386h386v-165h-386v165z" />
    <glyph glyph-name="registered" unicode="&#xae;" horiz-adv-x="1361" 
d="M350 0q-74 0 -122 10t-76.5 32.5t-40 59.5t-11.5 91v298q0 52 16 87.5t46 58t74.5 32.5t101.5 10h684q57 0 101.5 -10t75 -32.5t46.5 -59t16 -89.5v-295q0 -54 -11.5 -91t-40 -59.5t-76.5 -32.5t-122 -10h-661zM938 132q69 -1 98 23.5t29 75.5v225q0 28 -9 47t-25 30
t-37 15.5t-46 4.5h-538q-25 0 -46 -4.5t-36 -15.5t-23.5 -30t-8.5 -47v-141q0 -41 1 -84q0 -51 29 -75.5t98 -23.5h514zM430 481h420q35 0 52.5 -11t17.5 -43v-78q0 -32 -20 -42t-45 -10h-38l114 -93h-196l-101 93h-38v-93h-166v277zM729 353q14 0 19.5 2.5t5.5 17.5v30
q0 16 -5 19t-20 3h-133v-72h133z" />
    <glyph glyph-name="macron" unicode="&#xaf;" horiz-adv-x="439" 
d="M155 721h517v-102h-517v102z" />
    <glyph glyph-name="degree" unicode="&#xb0;" horiz-adv-x="579" 
d="M469 404q0 -33 -17 -52.5t-64 -19.5h-198q-47 0 -63.5 19.5t-16.5 52.5v206q0 32 15 51t64 19h199q48 0 64 -19t16 -51zM354 438v141h-129v-141h129z" />
    <glyph glyph-name="plusminus" unicode="&#xb1;" horiz-adv-x="670" 
d="M80 0v160h167v70h-167v160h167v144h176v-144h167v-160h-167v-70h167v-160h-510z" />
    <glyph glyph-name="uni00B2" unicode="&#xb2;" horiz-adv-x="649" 
d="M566 425q3 -9 3 -24q0 -40 -27.5 -68t-82.5 -28h-379v51q0 24 14.5 39.5t34.5 29.5q66 45 131 87.5t134 85.5v18h-173v-76l-133 30v43q0 52 27 79.5t94 27.5h207q56 0 85 -26t29 -69v-26q0 -29 -13.5 -44t-35.5 -29l-207 -121q17 3 34.5 4t29.5 1h91v40z" />
    <glyph glyph-name="uni00B3" unicode="&#xb3;" horiz-adv-x="693" 
d="M573 588q0 -32 -23 -48t-61 -22q49 -1 76.5 -23.5t27.5 -52.5v-46q0 -31 -10 -49t-25.5 -27.5t-36 -12t-41.5 -2.5h-279q-57 0 -84 28t-27 66q0 17 4 32l132 24v-45h189q18 0 24.5 6.5t6.5 20.5v10q0 17 -8.5 20t-22.5 3h-122v96h99q17 0 27 3.5t10 20.5v9
q0 17 -9.5 20.5t-26.5 3.5h-155v-49l-137 28v22q0 43 24.5 69.5t74.5 26.5h282q18 0 34.5 -3.5t29 -13.5t20 -27.5t7.5 -44.5v-43z" />
    <glyph glyph-name="acute" unicode="&#xb4;" horiz-adv-x="439" 
d="M404 805l-173 -186h-168l117 186h224z" />
    <glyph glyph-name="mu" unicode="&#xb5;" horiz-adv-x="776" 
d="M348 0q-17 0 -33 3t-29 11h-4v-214h-197v734h197v-367h155q26 0 41.5 13.5t15.5 52.5v301h197v-534h-147l-11 71h-4q-5 -10 -15.5 -22t-26.5 -23t-37 -18.5t-45 -7.5h-57z" />
    <glyph glyph-name="paragraph" unicode="&#xb6;" horiz-adv-x="992" 
d="M247 226q-32 0 -60 5.5t-50 20t-34.5 40t-12.5 64.5v191q0 39 10.5 64.5t31.5 41t53 21.5t76 6h591v-880h-197v743h-157v-743h-197v426h-54z" />
    <glyph glyph-name="periodcentered" unicode="&#xb7;" horiz-adv-x="420" 
d="M340 203q0 -28 -10 -36t-44 -8h-122q-34 0 -44 8t-10 36v135q0 28 10 36t44 8h122q34 0 44 -8t10 -36v-135z" />
    <glyph glyph-name="cedilla" unicode="&#xb8;" horiz-adv-x="439" 
d="M283 0l-35 -45q6 2 27.5 8.5t50.5 6.5q53 0 74.5 -19t21.5 -51q0 -26 -17.5 -45t-45 -31t-61 -18t-65.5 -6q-55 0 -95 7.5t-72 21.5l27 58q19 -10 41 -15.5t50 -5.5q29 0 51 5.5t22 19.5q0 12 -9 17t-23 5q-23 0 -35 -4t-26 -9l-32 33l48 67h103z" />
    <glyph glyph-name="uni00B9" unicode="&#xb9;" horiz-adv-x="507" 
d="M180 596h-120v82l267 43v-416h-147v291z" />
    <glyph glyph-name="ordmasculine" unicode="&#xba;" horiz-adv-x="722" 
d="M623.539 447.93q0 -34.9551 -7.38281 -61.7549q-7.38281 -26.7988 -25.2578 -45.0537t-49.3496 -27.1875q-31.4756 -8.93359 -78.8818 -8.93359h-200.508q-48.1836 0 -79.2705 8.93359q-31.0859 8.93262 -49.3496 27.1875q-18.2627 18.2549 -25.2578 45.0537
q-6.99414 26.7998 -6.99414 61.7549v125.841q0 38.0635 6.99414 65.6396q6.99512 27.5762 24.8691 45.4424q17.875 17.8662 49.3496 26.4111q31.4756 8.54492 79.6592 8.54492h200.508q48.1836 0 79.2705 -8.54492q31.0859 -8.54492 49.3496 -26.0225
q18.2627 -17.4785 25.2578 -45.4424q6.99414 -27.9648 6.99414 -66.0283v-125.841zM470.438 432.395v165.457h-216.051v-165.457h216.051z" />
    <glyph glyph-name="guillemotright" unicode="&#xbb;" horiz-adv-x="794" 
d="M571 482l153 -212l-153 -213h-194l151 213l-151 212h194zM230 482l154 -212l-155 -213h-194l153 213l-152 212h194z" />
    <glyph glyph-name="onequarter" unicode="&#xbc;" horiz-adv-x="1296" 
d="M943 726l-533 -842h-189l534 842h188zM180 596h-120v82l267 43v-416h-147v291zM1236 68v-100h-95v-76h-146v76h-300v86l298 253h148v-239h95zM995 171q-18 -15 -32.5 -27t-28.5 -24t-29.5 -25t-36.5 -29h127v105z" />
    <glyph glyph-name="onehalf" unicode="&#xbd;" horiz-adv-x="1350" 
d="M943 726l-533 -842h-189l534 842h188zM180 596h-120v82l267 43v-416h-147v291zM1267 12q3 -9 3 -24q0 -40 -27.5 -68t-82.5 -28h-379v51q0 24 14.5 39.5t34.5 29.5q66 45 131 87.5t134 85.5v18h-173v-76l-133 30v43q0 52 27 79.5t94 27.5h207q56 0 85 -26t29 -69v-26
q0 -29 -13.5 -44t-35.5 -29l-207 -121q17 3 34.5 4t29.5 1h91v40z" />
    <glyph glyph-name="threequarters" unicode="&#xbe;" horiz-adv-x="1503" 
d="M1160 726l-533 -842h-189l534 842h188zM1453 68v-100h-95v-76h-146v76h-300v86l298 253h148v-239h95zM1212 171q-18 -15 -32.5 -27t-28.5 -24t-29.5 -25t-36.5 -29h127v105zM573 588q0 -32 -23 -48t-61 -22q49 -1 76.5 -23.5t27.5 -52.5v-46q0 -31 -10 -49t-25.5 -27.5
t-36 -12t-41.5 -2.5h-279q-57 0 -84 28t-27 66q0 17 4 32l132 24v-45h189q18 0 24.5 6.5t6.5 20.5v10q0 17 -8.5 20t-22.5 3h-122v96h99q17 0 27 3.5t10 20.5v9q0 17 -9.5 20.5t-26.5 3.5h-155v-49l-137 28v22q0 43 24.5 69.5t74.5 26.5h282q18 0 34.5 -3.5t29 -13.5
t20 -27.5t7.5 -44.5v-43z" />
    <glyph glyph-name="questiondown" unicode="&#xbf;" horiz-adv-x="825" 
d="M298.064 177.037v70.9912h223.973v-130.984l-238.971 -107.986v-68.9912h279.966v87.9883l201.976 -30.9961v-21.9971q0 -41.9951 -7 -74.9912q-6.99902 -32.9951 -25.4961 -54.9932q-18.498 -21.9971 -52.4941 -33.4951q-33.9961 -11.499 -87.9893 -11.499h-369.955
q-80.9893 0 -121.484 42.4951q-40.4951 42.4941 -40.4951 113.486v112.985zM295.064 436.006q0 27.9961 9.99902 35.9951t43.9951 7.99902h121.984q33.9961 0 43.9951 -7.99902t9.99902 -35.9951v-74.9912q0 -27.9971 -9.99902 -35.9961t-43.9951 -7.99902h-121.984
q-33.9961 0 -43.9951 7.99902t-9.99902 35.9961v74.9912z" />
    <glyph glyph-name="Agrave" unicode="&#xc0;" horiz-adv-x="1034" 
d="M703 120h-414l-62 -120h-222l381 680h235l408 -680h-258zM369 280h247l-128 220zM530 947l117 -186h-168l-173 186h224z" />
    <glyph glyph-name="Aacute" unicode="&#xc1;" horiz-adv-x="1034" 
d="M703 120h-414l-62 -120h-222l381 680h235l408 -680h-258zM369 280h247l-128 220zM717 947l-173 -186h-168l117 186h224z" />
    <glyph glyph-name="Acircumflex" unicode="&#xc2;" horiz-adv-x="1034" 
d="M703 120h-414l-62 -120h-222l381 680h235l408 -680h-258zM369 280h247l-128 220zM378 947h222l170 -186h-195l-87 104l-87 -104h-194z" />
    <glyph glyph-name="Atilde" unicode="&#xc3;" horiz-adv-x="1034" 
d="M703 120h-414l-62 -120h-222l381 680h235l408 -680h-258zM369 280h247l-128 220zM746 960q0 -35 -12.5 -69t-35 -61t-54 -44t-69.5 -17q-29 0 -52 7.5t-44 16.5t-41 16.5t-43 7.5q-45 0 -45 -56h-120q2 37 15.5 71.5t36 60.5t54 42t69.5 16q29 0 51 -7t41 -16t37.5 -16
t40.5 -7q21 0 32.5 11t12.5 44h126z" />
    <glyph glyph-name="Adieresis" unicode="&#xc4;" horiz-adv-x="1034" 
d="M703 120h-414l-62 -120h-222l381 680h235l408 -680h-258zM369 280h247l-128 220zM230 916h197v-151h-197v151zM550 916h197v-151h-197v151z" />
    <glyph glyph-name="Aring" unicode="&#xc5;" horiz-adv-x="1034" 
d="M703 120h-414l-62 -120h-222l381 680h235l408 -680h-258zM369 280h247l-128 220zM327 905q0 30 12 56t33.5 45.5t51 30.5t64.5 11t64.5 -11t51 -30.5t33.5 -45.5t12 -56t-12 -56t-33.5 -45.5t-51 -31t-64.5 -11.5t-64.5 11.5t-51 31t-33.5 45.5t-12 56zM444 905
q0 -21 11.5 -36.5t32.5 -15.5t32.5 15.5t11.5 36.5q0 22 -11.5 37t-32.5 15t-32.5 -15t-11.5 -37z" />
    <glyph glyph-name="AE" unicode="&#xc6;" horiz-adv-x="1617" 
d="M1552 680v-160h-580v-94h343v-160h-343v-96h585v-170h-808v137h-356l-111 -137h-267l567 680h970zM749 541h-34l-199 -244h233v244z" />
    <glyph glyph-name="Ccedilla" unicode="&#xc7;" horiz-adv-x="1021" 
d="M548 0l-34 -44q6 2 27.5 8.5t50.5 6.5q53 0 74.5 -19t21.5 -51q0 -26 -17.5 -45t-45 -31t-61 -18t-65.5 -6q-55 0 -95 7.5t-72 21.5l27 58q19 -10 41 -15.5t50 -5.5q29 0 51 5.5t22 19.5q0 12 -9 17t-23 5q-23 0 -35 -4t-26 -9l-32 33l47 66h-132q-54 0 -96 14t-70 39.5
t-42.5 61t-14.5 77.5v313q0 47 17 80t47 54t70.5 31t87.5 10h451q50 0 83.5 -11t53.5 -30.5t28 -46.5t8 -59v-84l-223 -32v95h-400v-332h400v113l223 -47v-79q0 -32 -11.5 -62.5t-35 -53.5t-60 -37t-86.5 -14h-195z" />
    <glyph glyph-name="Egrave" unicode="&#xc8;" horiz-adv-x="968" 
d="M100 680h803v-160h-580v-94h343v-160h-343v-96h585v-170h-808v680zM487 947l117 -186h-168l-173 186h224z" />
    <glyph glyph-name="Eacute" unicode="&#xc9;" horiz-adv-x="968" 
d="M100 680h803v-160h-580v-94h343v-160h-343v-96h585v-170h-808v680zM719 947l-173 -186h-168l117 186h224z" />
    <glyph glyph-name="Ecircumflex" unicode="&#xca;" horiz-adv-x="968" 
d="M100 680h803v-160h-580v-94h343v-160h-343v-96h585v-170h-808v680zM373 947h222l170 -186h-195l-87 104l-87 -104h-194z" />
    <glyph glyph-name="Edieresis" unicode="&#xcb;" horiz-adv-x="968" 
d="M100 680h803v-160h-580v-94h343v-160h-343v-96h585v-170h-808v680zM245 916h197v-151h-197v151zM565 916h197v-151h-197v151z" />
    <glyph glyph-name="Igrave" unicode="&#xcc;" horiz-adv-x="423" 
d="M100 680h223v-680h-223v680zM227 947l117 -186h-168l-173 186h224z" />
    <glyph glyph-name="Iacute" unicode="&#xcd;" horiz-adv-x="423" 
d="M100 680h223v-680h-223v680zM412 947l-173 -186h-168l117 186h224z" />
    <glyph glyph-name="Icircumflex" unicode="&#xce;" horiz-adv-x="423" 
d="M100 680h223v-680h-223v680zM103 947h222l170 -186h-195l-87 104l-87 -104h-194z" />
    <glyph glyph-name="Idieresis" unicode="&#xcf;" horiz-adv-x="423" 
d="M100 680h223v-680h-223v680zM-45 916h197v-151h-197v151zM275 916h197v-151h-197v151z" />
    <glyph glyph-name="Eth" unicode="&#xd0;" horiz-adv-x="1072" 
d="M100 310h-126v73h126v297h465q123 0 206.5 -22t135 -64t73.5 -103t22 -139q0 -80 -22 -145t-73.5 -111t-135 -71t-206.5 -25h-465v310zM565 170q59 0 100.5 12t67.5 36t37.5 58.5t11.5 79.5q0 82 -50.5 123t-166.5 41h-242v-137h226v-73h-226v-140h242z" />
    <glyph glyph-name="Ntilde" unicode="&#xd1;" horiz-adv-x="1036" 
d="M100 680h195l443 -407v407h198v-680h-200l-438 403v-403h-198v680zM786 960q0 -35 -12.5 -69t-35 -61t-54 -44t-69.5 -17q-29 0 -52 7.5t-44 16.5t-41 16.5t-43 7.5q-45 0 -45 -56h-120q2 37 15.5 71.5t36 60.5t54 42t69.5 16q29 0 51 -7t41 -16t37.5 -16t40.5 -7
q21 0 32.5 11t12.5 44h126z" />
    <glyph glyph-name="Ograve" unicode="&#xd2;" horiz-adv-x="1071" 
d="M313 0q-54 0 -96 14.5t-70 40t-42.5 61t-14.5 77.5v311q0 86 57 131t166 45h445q109 0 166 -45t57 -131v-311q0 -42 -14.5 -77.5t-43 -61t-70 -40t-95.5 -14.5h-445zM758 190v312h-445v-312h445zM499 947l117 -186h-168l-173 186h224z" />
    <glyph glyph-name="Oacute" unicode="&#xd3;" horiz-adv-x="1071" 
d="M313 0q-54 0 -96 14.5t-70 40t-42.5 61t-14.5 77.5v311q0 86 57 131t166 45h445q109 0 166 -45t57 -131v-311q0 -42 -14.5 -77.5t-43 -61t-70 -40t-95.5 -14.5h-445zM758 190v312h-445v-312h445zM787 947l-173 -186h-168l117 186h224z" />
    <glyph glyph-name="Ocircumflex" unicode="&#xd4;" horiz-adv-x="1071" 
d="M313 0q-54 0 -96 14.5t-70 40t-42.5 61t-14.5 77.5v311q0 86 57 131t166 45h445q109 0 166 -45t57 -131v-311q0 -42 -14.5 -77.5t-43 -61t-70 -40t-95.5 -14.5h-445zM758 190v312h-445v-312h445zM425 947h222l170 -186h-195l-87 104l-87 -104h-194z" />
    <glyph glyph-name="Otilde" unicode="&#xd5;" horiz-adv-x="1071" 
d="M313 0q-54 0 -96 14.5t-70 40t-42.5 61t-14.5 77.5v311q0 86 57 131t166 45h445q109 0 166 -45t57 -131v-311q0 -42 -14.5 -77.5t-43 -61t-70 -40t-95.5 -14.5h-445zM758 190v312h-445v-312h445zM793 960q0 -35 -12.5 -69t-35 -61t-54 -44t-69.5 -17q-29 0 -52 7.5
t-44 16.5t-41 16.5t-43 7.5q-45 0 -45 -56h-120q2 37 15.5 71.5t36 60.5t54 42t69.5 16q29 0 51 -7t41 -16t37.5 -16t40.5 -7q21 0 32.5 11t12.5 44h126z" />
    <glyph glyph-name="Odieresis" unicode="&#xd6;" horiz-adv-x="1081" 
d="M313 0q-54 0 -96 14.5t-70 40t-42.5 61t-14.5 77.5v311q0 86 57 131t166 45h445q109 0 166 -45t57 -131v-311q0 -42 -14.5 -77.5t-43 -61t-70 -40t-95.5 -14.5h-445zM758 190v312h-445v-312h445zM279 916h197v-151h-197v151zM599 916h197v-151h-197v151z" />
    <glyph glyph-name="multiply" unicode="&#xd7;" horiz-adv-x="1000" 
d="M184 103l164 164l-164 164l102 103l164 -165l165 165l102 -103l-164 -164l164 -164l-102 -103l-165 164l-164 -164z" />
    <glyph glyph-name="Oslash" unicode="&#xd8;" horiz-adv-x="1071" 
d="M350 0h-37q-54 0 -96 14.5t-70 40t-42.5 61t-14.5 77.5v311q0 86 57 131t166 45h328l47 110h79l-47 -110h38q109 0 166 -45t57 -131v-311q0 -42 -14.5 -77.5t-43 -61t-70 -40t-95.5 -14.5h-329l-54 -127h-79zM431 190l134 312h-252v-312h118zM644 502l-134 -312h248v312
h-114z" />
    <glyph glyph-name="Ugrave" unicode="&#xd9;" horiz-adv-x="1021" 
d="M931 193q0 -42 -14.5 -77.5t-43 -61t-70 -40t-95.5 -14.5h-395q-54 0 -96 14.5t-70 40t-42.5 61t-14.5 77.5v487h223v-490h395v490h223v-487zM483 947l117 -186h-168l-173 186h224z" />
    <glyph glyph-name="Uacute" unicode="&#xda;" horiz-adv-x="1021" 
d="M931 193q0 -42 -14.5 -77.5t-43 -61t-70 -40t-95.5 -14.5h-395q-54 0 -96 14.5t-70 40t-42.5 61t-14.5 77.5v487h223v-490h395v490h223v-487zM771 947l-173 -186h-168l117 186h224z" />
    <glyph glyph-name="Ucircumflex" unicode="&#xdb;" horiz-adv-x="1021" 
d="M931 193q0 -42 -14.5 -77.5t-43 -61t-70 -40t-95.5 -14.5h-395q-54 0 -96 14.5t-70 40t-42.5 61t-14.5 77.5v487h223v-490h395v490h223v-487zM400 947h222l170 -186h-195l-87 104l-87 -104h-194z" />
    <glyph glyph-name="Udieresis" unicode="&#xdc;" horiz-adv-x="1021" 
d="M931 193q0 -42 -14.5 -77.5t-43 -61t-70 -40t-95.5 -14.5h-395q-54 0 -96 14.5t-70 40t-42.5 61t-14.5 77.5v487h223v-490h395v490h223v-487zM256 916h197v-151h-197v151zM576 916h197v-151h-197v151z" />
    <glyph glyph-name="Yacute" unicode="&#xdd;" horiz-adv-x="1012" 
d="M619 0h-223v309l-351 371h283l190 -213q48 53 96.5 107t95.5 106h257l-348 -371v-309zM766 947l-173 -186h-168l117 186h224z" />
    <glyph glyph-name="Thorn" unicode="&#xde;" horiz-adv-x="1022" 
d="M100 680h223v-95h438q43 0 75.5 -6t53.5 -21.5t31.5 -41t10.5 -64.5v-191q0 -39 -12.5 -64.5t-34.5 -40t-50.5 -20t-59.5 -5.5h-452v-131h-223v680zM648 271q17 0 29 1t19 5.5t10 15t3 28.5v70q0 19 -3 30t-9.5 16t-18.5 6.5t-30 1.5h-325v-174h325z" />
    <glyph glyph-name="germandbls" unicode="&#xdf;" horiz-adv-x="837" 
d="M456 0q-60 0 -98 28.5t-38 80.5q0 14 0.5 25.5t2.5 22.5l164 19v-50h73v215q0 27 -15 31.5t-35 4.5h-110v137h31q23 0 36.5 6.5t13.5 34.5v13q0 9 -2.5 19.5t-10 19t-22.5 14t-39 5.5h-36q-28 0 -45.5 -5t-27 -15.5t-13 -27.5t-3.5 -42v-536h-197v558q0 55 10 91.5t39 59
t81.5 32t137.5 9.5h120q39 0 76 -6t65.5 -21.5t46 -43.5t17.5 -72v-15q0 -32 -23 -51.5t-55 -26.5q83 0 120 -36t37 -101v-257q0 -33 -12 -55.5t-32.5 -37t-48 -21t-58.5 -6.5h-150z" />
    <glyph glyph-name="agrave" unicode="&#xe0;" horiz-adv-x="812" 
d="M536 355q0 20 -7 36t-24.5 26.5t-47.5 16t-77 5.5q-31 0 -65 -2t-68.5 -7t-67.5 -15t-62 -25l49 137q52 20 118.5 28.5t138.5 8.5q81 0 139 -14.5t96 -45t56 -78t18 -113.5v-313h-162l-11 71h-4q-4 -8 -14 -20t-26 -23.5t-37.5 -19.5t-47.5 -8h-223q-70 0 -109 37
t-39 127v33q0 85 36.5 121.5t111.5 36.5h329zM535 230h-284v-94h206q41 0 59.5 16t18.5 45v33zM407 805l117 -186h-168l-173 186h224z" />
    <glyph glyph-name="aacute" unicode="&#xe1;" horiz-adv-x="812" 
d="M536 355q0 20 -7 36t-24.5 26.5t-47.5 16t-77 5.5q-31 0 -65 -2t-68.5 -7t-67.5 -15t-62 -25l49 137q52 20 118.5 28.5t138.5 8.5q81 0 139 -14.5t96 -45t56 -78t18 -113.5v-313h-162l-11 71h-4q-4 -8 -14 -20t-26 -23.5t-37.5 -19.5t-47.5 -8h-223q-70 0 -109 37
t-39 127v33q0 85 36.5 121.5t111.5 36.5h329zM535 230h-284v-94h206q41 0 59.5 16t18.5 45v33zM669 805l-173 -186h-168l117 186h224z" />
    <glyph glyph-name="acircumflex" unicode="&#xe2;" horiz-adv-x="812" 
d="M536 355q0 20 -7 36t-24.5 26.5t-47.5 16t-77 5.5q-31 0 -65 -2t-68.5 -7t-67.5 -15t-62 -25l49 137q52 20 118.5 28.5t138.5 8.5q81 0 139 -14.5t96 -45t56 -78t18 -113.5v-313h-162l-11 71h-4q-4 -8 -14 -20t-26 -23.5t-37.5 -19.5t-47.5 -8h-223q-70 0 -109 37
t-39 127v33q0 85 36.5 121.5t111.5 36.5h329zM535 230h-284v-94h206q41 0 59.5 16t18.5 45v33zM293 805h222l170 -186h-195l-87 104l-87 -104h-194z" />
    <glyph glyph-name="atilde" unicode="&#xe3;" horiz-adv-x="812" 
d="M536 355q0 20 -7 36t-24.5 26.5t-47.5 16t-77 5.5q-31 0 -65 -2t-68.5 -7t-67.5 -15t-62 -25l49 137q52 20 118.5 28.5t138.5 8.5q81 0 139 -14.5t96 -45t56 -78t18 -113.5v-313h-162l-11 71h-4q-4 -8 -14 -20t-26 -23.5t-37.5 -19.5t-47.5 -8h-223q-70 0 -109 37
t-39 127v33q0 85 36.5 121.5t111.5 36.5h329zM535 230h-284v-94h206q41 0 59.5 16t18.5 45v33zM661 818q0 -35 -12.5 -69t-35 -61t-54 -44t-69.5 -17q-29 0 -52 7.5t-44 16.5t-41 16.5t-43 7.5q-45 0 -45 -56h-120q2 37 15.5 71.5t36 60.5t54 42t69.5 16q29 0 51 -7t41 -16
t37.5 -16t40.5 -7q21 0 32.5 11t12.5 44h126z" />
    <glyph glyph-name="adieresis" unicode="&#xe4;" horiz-adv-x="812" 
d="M536 355q0 20 -7 36t-24.5 26.5t-47.5 16t-77 5.5q-31 0 -65 -2t-68.5 -7t-67.5 -15t-62 -25l49 137q52 20 118.5 28.5t138.5 8.5q81 0 139 -14.5t96 -45t56 -78t18 -113.5v-313h-162l-11 71h-4q-4 -8 -14 -20t-26 -23.5t-37.5 -19.5t-47.5 -8h-223q-70 0 -109 37
t-39 127v33q0 85 36.5 121.5t111.5 36.5h329zM535 230h-284v-94h206q41 0 59.5 16t18.5 45v33zM155 770h197v-151h-197v151zM475 770h197v-151h-197v151z" />
    <glyph glyph-name="aring" unicode="&#xe5;" horiz-adv-x="812" 
d="M536 355q0 20 -7 36t-24.5 26.5t-47.5 16t-77 5.5q-31 0 -65 -2t-68.5 -7t-67.5 -15t-62 -25l49 137q52 20 118.5 28.5t138.5 8.5q81 0 139 -14.5t96 -45t56 -78t18 -113.5v-313h-162l-11 71h-4q-4 -8 -14 -20t-26 -23.5t-37.5 -19.5t-47.5 -8h-223q-70 0 -109 37
t-39 127v33q0 85 36.5 121.5t111.5 36.5h329zM535 230h-284v-94h206q41 0 59.5 16t18.5 45v33zM245 763q0 30 12 56t33.5 45.5t51 30.5t64.5 11t64.5 -11t51 -30.5t33.5 -45.5t12 -56t-12 -56t-33.5 -45.5t-51 -31t-64.5 -11.5t-64.5 11.5t-51 31t-33.5 45.5t-12 56z
M362 763q0 -21 11.5 -36.5t32.5 -15.5t32.5 15.5t11.5 36.5q0 22 -11.5 37t-32.5 15t-32.5 -15t-11.5 -37z" />
    <glyph glyph-name="ae" unicode="&#xe6;" horiz-adv-x="1252" 
d="M535 230h-284v-94h206q41 0 59.5 16t18.5 45v33zM732 328h263v76h-263v-76zM536 355q0 20 -7 36t-24.5 26.5t-47.5 16t-77 5.5q-31 0 -65 -2t-68.5 -7t-67.5 -15t-62 -25l49 137q52 20 118.5 28.5t138.5 8.5q58 0 113 -13t97 -50q14 15 43.5 24t65.5 9h268
q88 0 132.5 -34.5t44.5 -118.5v-54q0 -56 -37 -87t-109 -31h-309v-20q0 -20 7.5 -35.5t26 -26.5t50.5 -16.5t81 -5.5q78 0 146 9.5t113 19.5l-46 -133q-29 -6 -56 -10t-55.5 -6.5t-61.5 -3.5t-75 -1q-115 0 -186 24t-108 81h-4q-4 -8 -13.5 -22t-26 -28t-40 -24.5
t-54.5 -10.5h-223q-70 0 -109 37t-39 127v33q0 85 36.5 121.5t111.5 36.5h329z" />
    <glyph glyph-name="ccedilla" unicode="&#xe7;" horiz-adv-x="768" 
d="M520 303v84h-243v-233h246v72l175 -13v-59q0 -41 -7 -70t-29 -48t-63 -27.5t-109 -8.5h-63l-34 -44q6 2 27.5 8.5t50.5 6.5q53 0 74.5 -19t21.5 -51q0 -26 -17.5 -45t-45 -31t-61 -18t-65.5 -6q-55 0 -95 7.5t-72 21.5l27 58q19 -10 41 -15.5t50 -5.5q29 0 51 5.5
t22 19.5q0 12 -9 17t-23 5q-23 0 -35 -4t-26 -9l-32 33l47 66h-37q-60 0 -99.5 10.5t-63.5 33t-34 57t-10 83.5v163q0 51 10 86.5t34 58t63.5 32.5t99.5 10h202q67 0 107.5 -7.5t62.5 -26.5t29 -50t7 -79v-35z" />
    <glyph glyph-name="egrave" unicode="&#xe8;" horiz-adv-x="792" 
d="M272 328h263v76h-263v-76zM272 209v-20q0 -20 7.5 -35.5t26 -26.5t50.5 -16.5t81 -5.5q78 0 146 9.5t113 19.5l-46 -133q-29 -6 -56 -10t-55.5 -6.5t-61.5 -3.5t-75 -1q-78 0 -139 12t-103 39.5t-63.5 73.5t-21.5 114v128q0 55 11.5 91t36 57.5t64 30t95.5 8.5h268
q88 0 132.5 -34.5t44.5 -118.5v-54q0 -56 -37 -87t-109 -31h-309zM401 805l117 -186h-168l-173 186h224z" />
    <glyph glyph-name="eacute" unicode="&#xe9;" horiz-adv-x="792" 
d="M272 328h263v76h-263v-76zM272 209v-20q0 -20 7.5 -35.5t26 -26.5t50.5 -16.5t81 -5.5q78 0 146 9.5t113 19.5l-46 -133q-29 -6 -56 -10t-55.5 -6.5t-61.5 -3.5t-75 -1q-78 0 -139 12t-103 39.5t-63.5 73.5t-21.5 114v128q0 55 11.5 91t36 57.5t64 30t95.5 8.5h268
q88 0 132.5 -34.5t44.5 -118.5v-54q0 -56 -37 -87t-109 -31h-309zM678 805l-173 -186h-168l117 186h224z" />
    <glyph glyph-name="ecircumflex" unicode="&#xea;" horiz-adv-x="792" 
d="M272 328h263v76h-263v-76zM272 209v-20q0 -20 7.5 -35.5t26 -26.5t50.5 -16.5t81 -5.5q78 0 146 9.5t113 19.5l-46 -133q-29 -6 -56 -10t-55.5 -6.5t-61.5 -3.5t-75 -1q-78 0 -139 12t-103 39.5t-63.5 73.5t-21.5 114v128q0 55 11.5 91t36 57.5t64 30t95.5 8.5h268
q88 0 132.5 -34.5t44.5 -118.5v-54q0 -56 -37 -87t-109 -31h-309zM307 805h222l170 -186h-195l-87 104l-87 -104h-194z" />
    <glyph glyph-name="edieresis" unicode="&#xeb;" horiz-adv-x="792" 
d="M272 328h263v76h-263v-76zM272 209v-20q0 -20 7.5 -35.5t26 -26.5t50.5 -16.5t81 -5.5q78 0 146 9.5t113 19.5l-46 -133q-29 -6 -56 -10t-55.5 -6.5t-61.5 -3.5t-75 -1q-78 0 -139 12t-103 39.5t-63.5 73.5t-21.5 114v128q0 55 11.5 91t36 57.5t64 30t95.5 8.5h268
q88 0 132.5 -34.5t44.5 -118.5v-54q0 -56 -37 -87t-109 -31h-309zM169 770h197v-151h-197v151zM489 770h197v-151h-197v151z" />
    <glyph glyph-name="igrave" unicode="&#xec;" horiz-adv-x="367" 
d="M85 534h197v-534h-197v534zM199 805l117 -186h-168l-173 186h224z" />
    <glyph glyph-name="iacute" unicode="&#xed;" horiz-adv-x="367" 
d="M85 534h197v-534h-197v534zM386 805l-173 -186h-168l117 186h224z" />
    <glyph glyph-name="icircumflex" unicode="&#xee;" horiz-adv-x="367" 
d="M85 534h197v-534h-197v534zM75 805h222l170 -186h-195l-87 104l-87 -104h-194z" />
    <glyph glyph-name="idieresis" unicode="&#xef;" horiz-adv-x="367" 
d="M85 534h197v-534h-197v534zM-73 770h197v-151h-197v151zM247 770h197v-151h-197v151z" />
    <glyph glyph-name="eth" unicode="&#xf0;" horiz-adv-x="832" 
d="M649 717l-47 -45q69 -51 111 -138.5t42 -215.5v-106q0 -66 -12 -107.5t-42 -65t-82.5 -31.5t-133.5 -8h-135q-81 0 -133.5 8t-82.5 31.5t-42 65t-12 107.5v77q0 66 21.5 107.5t58.5 65t85.5 31.5t102.5 8q20 0 50.5 -5t61.5 -13.5t57.5 -20t38.5 -24.5h4q-12 40 -31 69.5
t-48 49.5l-47 -45l-53 32l41 39q-19 5 -41 7.5t-47 2.5q-22 0 -52 -4.5t-59 -15.5l77 174q28 2 39 2.5t19 0.5q51 0 99.5 -11.5t93.5 -34.5l48 46zM478 164q27 0 43 2.5t24.5 8.5t10.5 15t2 23v82q0 27 -33 38t-110 11q-49 0 -76.5 -2.5t-41 -8.5t-17 -15.5t-3.5 -22.5v-82
q0 -14 2 -23t10.5 -15t24.5 -8.5t43 -2.5h121z" />
    <glyph glyph-name="ntilde" unicode="&#xf1;" horiz-adv-x="811" 
d="M520 534q62 0 102 -11t63 -34.5t32 -59t9 -84.5v-345h-197v367h-190q-26 0 -41.5 -13.5t-15.5 -52.5v-301h-197v534h147l19 -96h4q4 10 12.5 26t22.5 31.5t36 27t54 11.5h140zM663 818q0 -35 -12.5 -69t-35 -61t-54 -44t-69.5 -17q-29 0 -52 7.5t-44 16.5t-41 16.5
t-43 7.5q-45 0 -45 -56h-120q2 37 15.5 71.5t36 60.5t54 42t69.5 16q29 0 51 -7t41 -16t37.5 -16t40.5 -7q21 0 32.5 11t12.5 44h126z" />
    <glyph glyph-name="ograve" unicode="&#xf2;" horiz-adv-x="832" 
d="M752 184q0 -45 -9.5 -79.5t-32.5 -58t-63.5 -35t-101.5 -11.5h-258q-62 0 -102 11.5t-63.5 35t-32.5 58t-9 79.5v162q0 49 9 84.5t32 58.5t63.5 34t102.5 11h258q62 0 102 -11t63.5 -33.5t32.5 -58.5t9 -85v-162zM555 164v213h-278v-213h278zM379 805l117 -186h-168
l-173 186h224z" />
    <glyph glyph-name="oacute" unicode="&#xf3;" horiz-adv-x="832" 
d="M752 184q0 -45 -9.5 -79.5t-32.5 -58t-63.5 -35t-101.5 -11.5h-258q-62 0 -102 11.5t-63.5 35t-32.5 58t-9 79.5v162q0 49 9 84.5t32 58.5t63.5 34t102.5 11h258q62 0 102 -11t63.5 -33.5t32.5 -58.5t9 -85v-162zM555 164v213h-278v-213h278zM676 805l-173 -186h-168
l117 186h224z" />
    <glyph glyph-name="ocircumflex" unicode="&#xf4;" horiz-adv-x="832" 
d="M752 184q0 -45 -9.5 -79.5t-32.5 -58t-63.5 -35t-101.5 -11.5h-258q-62 0 -102 11.5t-63.5 35t-32.5 58t-9 79.5v162q0 49 9 84.5t32 58.5t63.5 34t102.5 11h258q62 0 102 -11t63.5 -33.5t32.5 -58.5t9 -85v-162zM555 164v213h-278v-213h278zM305 805h222l170 -186h-195
l-87 104l-87 -104h-194z" />
    <glyph glyph-name="otilde" unicode="&#xf5;" horiz-adv-x="832" 
d="M752 184q0 -45 -9.5 -79.5t-32.5 -58t-63.5 -35t-101.5 -11.5h-258q-62 0 -102 11.5t-63.5 35t-32.5 58t-9 79.5v162q0 49 9 84.5t32 58.5t63.5 34t102.5 11h258q62 0 102 -11t63.5 -33.5t32.5 -58.5t9 -85v-162zM555 164v213h-278v-213h278zM673 818q0 -35 -12.5 -69
t-35 -61t-54 -44t-69.5 -17q-29 0 -52 7.5t-44 16.5t-41 16.5t-43 7.5q-45 0 -45 -56h-120q2 37 15.5 71.5t36 60.5t54 42t69.5 16q29 0 51 -7t41 -16t37.5 -16t40.5 -7q21 0 32.5 11t12.5 44h126z" />
    <glyph glyph-name="odieresis" unicode="&#xf6;" horiz-adv-x="832" 
d="M752 184q0 -45 -9.5 -79.5t-32.5 -58t-63.5 -35t-101.5 -11.5h-258q-62 0 -102 11.5t-63.5 35t-32.5 58t-9 79.5v162q0 49 9 84.5t32 58.5t63.5 34t102.5 11h258q62 0 102 -11t63.5 -33.5t32.5 -58.5t9 -85v-162zM555 164v213h-278v-213h278zM155 770h197v-151h-197v151z
M475 770h197v-151h-197v151z" />
    <glyph glyph-name="divide" unicode="&#xf7;" horiz-adv-x="670" 
d="M80 350h510v-160h-510v160zM430 44q0 -28 -10 -36t-44 -8h-82q-34 0 -44 8t-10 36v45q0 28 10 36t44 8h82q34 0 44 -8t10 -36v-45zM430 451q0 -28 -10 -36t-44 -8h-82q-34 0 -44 8t-10 36v45q0 28 10 36t44 8h82q34 0 44 -8t10 -36v-45z" />
    <glyph glyph-name="oslash" unicode="&#xf8;" horiz-adv-x="822" 
d="M747 184q0 -45 -9.5 -79.5t-32.5 -58t-63.5 -35t-101.5 -11.5h-221l-81 -162h-79l82 163q-49 4 -81 17.5t-51 36.5t-26.5 55t-7.5 74v162q0 49 9 84.5t32 58.5t63.5 34t102.5 11h227l86 171h79l-87 -173q47 -4 78 -17t49 -35.5t25.5 -56t7.5 -77.5v-162zM323 164l107 213
h-158v-213h51zM509 377l-107 -213h148v213h-41z" />
    <glyph glyph-name="ugrave" unicode="&#xf9;" horiz-adv-x="766" 
d="M286 0q-62 0 -102 11t-63 34.5t-32 59t-9 84.5v345h197v-367h155q26 0 41.5 13.5t15.5 52.5v301h197v-534h-147l-11 71h-4q-5 -10 -15.5 -22t-26.5 -23t-37 -18.5t-45 -7.5h-114zM366 805l117 -186h-168l-173 186h224z" />
    <glyph glyph-name="uacute" unicode="&#xfa;" horiz-adv-x="766" 
d="M286 0q-62 0 -102 11t-63 34.5t-32 59t-9 84.5v345h197v-367h155q26 0 41.5 13.5t15.5 52.5v301h197v-534h-147l-11 71h-4q-5 -10 -15.5 -22t-26.5 -23t-37 -18.5t-45 -7.5h-114zM633 805l-173 -186h-168l117 186h224z" />
    <glyph glyph-name="ucircumflex" unicode="&#xfb;" horiz-adv-x="766" 
d="M286 0q-62 0 -102 11t-63 34.5t-32 59t-9 84.5v345h197v-367h155q26 0 41.5 13.5t15.5 52.5v301h197v-534h-147l-11 71h-4q-5 -10 -15.5 -22t-26.5 -23t-37 -18.5t-45 -7.5h-114zM272 805h222l170 -186h-195l-87 104l-87 -104h-194z" />
    <glyph glyph-name="udieresis" unicode="&#xfc;" horiz-adv-x="766" 
d="M286 0q-62 0 -102 11t-63 34.5t-32 59t-9 84.5v345h197v-367h155q26 0 41.5 13.5t15.5 52.5v301h197v-534h-147l-11 71h-4q-5 -10 -15.5 -22t-26.5 -23t-37 -18.5t-45 -7.5h-114zM127 770h197v-151h-197v151zM447 770h197v-151h-197v151z" />
    <glyph glyph-name="yacute" unicode="&#xfd;" horiz-adv-x="768" 
d="M246 0l-241 534h238l142 -363l153 363h225l-352 -734h-230l141 200h-76zM654 805l-173 -186h-168l117 186h224z" />
    <glyph glyph-name="thorn" unicode="&#xfe;" horiz-adv-x="837" 
d="M551 534q62 0 102 -11t63 -34.5t32 -59t9 -84.5v-156q0 -49 -9 -84.5t-32 -59t-63 -34.5t-102 -11h-128q-54 0 -89 22t-48 49h-4v-271h-197v950h197v-292h4q6 13 16.5 27t26.5 24.5t39 17.5t55 7h128zM560 377h-221q-26 0 -41.5 -13.5t-15.5 -52.5v-81q0 -39 15.5 -52.5
t41.5 -13.5h221v213z" />
    <glyph glyph-name="ydieresis" unicode="&#xff;" horiz-adv-x="768" 
d="M246 0l-241 534h238l142 -363l153 363h225l-352 -734h-230l141 200h-76zM129 770h197v-151h-197v151zM449 770h197v-151h-197v151z" />
    <glyph glyph-name="dotlessi" unicode="&#x131;" horiz-adv-x="367" 
d="M85 534h197v-534h-197v534z" />
    <glyph glyph-name="OE" unicode="&#x152;" horiz-adv-x="1626" 
d="M1561 680v-160h-580v-94h343v-160h-343v-96h585v-170h-1253q-54 0 -96 14.5t-70 40t-42.5 61t-14.5 77.5v311q0 86 57 131t166 45h1248zM758 190v312h-445v-312h445z" />
    <glyph glyph-name="oe" unicode="&#x153;" horiz-adv-x="1277" 
d="M653 34q-22 -14 -47.5 -24t-60.5 -10h-258q-62 0 -102 11.5t-63.5 35t-32.5 58t-9 79.5v162q0 49 9 84.5t32 58.5t63.5 34t102.5 11h258q34 0 60.5 -5.5t47.5 -28.5q22 23 49.5 28.5t59.5 5.5h268q88 0 132.5 -34.5t44.5 -118.5v-54q0 -56 -37 -87t-109 -31h-309v-20
q0 -20 7.5 -35.5t26 -26.5t50.5 -16.5t81 -5.5q78 0 146 9.5t113 19.5l-46 -133q-29 -6 -56 -10t-55.5 -6.5t-61.5 -3.5t-75 -1q-68 0 -129.5 15t-99.5 39zM555 164v213h-278v-213h278zM752 328h263v76h-263v-76z" />
    <glyph glyph-name="Scaron" unicode="&#x160;" horiz-adv-x="1010" 
d="M268 281q-81 0 -116 33.5t-35 99.5v110q0 71 40 113.5t121 42.5h461q50 0 83.5 -11t53.5 -30.5t28.5 -46t8.5 -57.5q0 -12 -0.5 -19.5t-1.5 -14.5l-202 -37v76h-369v-119h425q31 0 59 -6.5t49.5 -21.5t34 -39.5t12.5 -61.5v-129q0 -31 -12 -60.5t-35 -52t-57.5 -36.5
t-80.5 -14h-463q-47 0 -81 12.5t-56.5 33.5t-33.5 48.5t-11 58.5q0 9 0.5 18t3.5 23l209 36v-75h394v126h-429zM635 761h-222l-170 186h195l87 -104l87 104h194z" />
    <glyph glyph-name="scaron" unicode="&#x161;" horiz-adv-x="785" 
d="M242 176v-50h270v88h-270q-83 0 -120 33t-37 81v49q0 32 6.5 60.5t24 50t47.5 34t78 12.5h301q42 0 71.5 -9.5t48 -26t27.5 -38t9 -45.5v-30l-175 -19v48h-241v-81h271q71 0 114 -29t43 -89v-81q0 -60 -41.5 -97t-136.5 -37h-321q-60 0 -98 28.5t-38 80.5q0 14 0.5 25.5
t2.5 22.5zM503 619h-222l-170 186h195l87 -104l87 104h194z" />
    <glyph glyph-name="Ydieresis" unicode="&#x178;" horiz-adv-x="1012" 
d="M619 0h-223v309l-351 371h283l190 -213q48 53 96.5 107t95.5 106h257l-348 -371v-309zM260 916h197v-151h-197v151zM580 916h197v-151h-197v151z" />
    <glyph glyph-name="Zcaron" unicode="&#x17d;" horiz-adv-x="908" 
d="M826 601q-110 -112 -181.5 -184t-116.5 -116.5t-70 -67.5t-43 -36q-9 -8 -18 -15.5t-20 -16.5q28 2 57 3.5t55 1.5h339v-170h-773v89q86 87 148 149t105 104.5t70.5 69t44.5 42t26.5 23.5t17.5 15q11 8 24 16.5t24 16.5q-26 -2 -59.5 -3.5t-57.5 -1.5h-310v160h738v-79z
M564 761h-222l-170 186h195l87 -104l87 104h194z" />
    <glyph glyph-name="zcaron" unicode="&#x17e;" horiz-adv-x="742" 
d="M60 119l295 228q14 11 39.5 27t45.5 27q-15 -2 -37.5 -4t-47.5 -4t-51 -3t-48 -1h-160v145h584v-121l-11 -9.5t-29.5 -24.5t-42 -34t-47.5 -39l-130 -106q-4 -3 -14 -11t-22.5 -17.5t-24.5 -18t-19 -13.5q32 5 75.5 9t83.5 4h183v-153h-622v119zM511 619h-222l-170 186
h195l87 -104l87 104h194z" />
    <glyph glyph-name="florin" unicode="&#x192;" 
d="M557 -8q-11 -55 -27.5 -92t-50 -59.5t-88 -32t-139.5 -9.5q-25 0 -46 3l-36 145q19 -13 40 -18t48 -5q28 0 46.5 5t30 15.5t18 27.5t11.5 42l70 363h-96l26 137h96l9 44q10 55 27 92t50.5 59.5t87.5 32t140 9.5q25 0 46 -3l36 -145q-19 13 -40 18t-48 5q-29 0 -47 -5
t-29.5 -15.5t-18 -27.5t-11.5 -42l-5 -22h118l-26 -137h-118z" />
    <glyph glyph-name="circumflex" unicode="&#x2c6;" horiz-adv-x="439" 
d="M109 805h222l170 -186h-195l-87 104l-87 -104h-194z" />
    <glyph glyph-name="caron" unicode="&#x2c7;" horiz-adv-x="439" 
d="M330 619h-222l-170 186h195l87 -104l87 104h194z" />
    <glyph glyph-name="ring" unicode="&#x2da;" horiz-adv-x="500" 
d="M-161 763q0 30 12 56t33.5 45.5t51 30.5t64.5 11t64.5 -11t51 -30.5t33.5 -45.5t12 -56t-12 -56t-33.5 -45.5t-51 -31t-64.5 -11.5t-64.5 11.5t-51 31t-33.5 45.5t-12 56zM-44 763q0 -21 11.5 -36.5t32.5 -15.5t32.5 15.5t11.5 36.5q0 22 -11.5 37t-32.5 15t-32.5 -15
t-11.5 -37z" />
    <glyph glyph-name="tilde" unicode="&#x2dc;" horiz-adv-x="451" 
d="M476 818q0 -35 -12.5 -69t-35 -61t-54 -44t-69.5 -17q-29 0 -52 7.5t-44 16.5t-41 16.5t-43 7.5q-45 0 -45 -56h-120q2 37 15.5 71.5t36 60.5t54 42t69.5 16q29 0 51 -7t41 -16t37.5 -16t40.5 -7q21 0 32.5 11t12.5 44h126z" />
    <glyph glyph-name="endash" unicode="&#x2013;" horiz-adv-x="500" 
d="M0 386h500v-165h-500v165z" />
    <glyph glyph-name="emdash" unicode="&#x2014;" horiz-adv-x="1000" 
d="M125 386h750v-165h-750v165z" />
    <glyph glyph-name="quoteleft" unicode="&#x2018;" horiz-adv-x="454" 
d="M267 700h77l-113 -201h59q34 0 44 -8t10 -36v-115q0 -28 -10 -36t-44 -8h-126q-34 0 -44 8t-10 36v162z" />
    <glyph glyph-name="quoteright" unicode="&#x2019;" horiz-adv-x="454" 
d="M187 276h-77l113 201h-59q-34 0 -44 8t-10 36v115q0 28 10 36t44 8h126q34 0 44 -8t10 -36v-162z" />
    <glyph glyph-name="quotesinglbase" unicode="&#x201a;" horiz-adv-x="454" 
d="M187 -181h-77l113 201h-59q-34 0 -44 8t-10 36v115q0 28 10 36t44 8h126q34 0 44 -8t10 -36v-162z" />
    <glyph glyph-name="quotedblleft" unicode="&#x201c;" horiz-adv-x="803" 
d="M616 700h77l-113 -201h59q34 0 44 -8t10 -36v-115q0 -28 -10 -36t-44 -8h-126q-34 0 -44 8t-10 36v162zM267 700h77l-113 -201h59q34 0 44 -8t10 -36v-115q0 -28 -10 -36t-44 -8h-126q-34 0 -44 8t-10 36v162z" />
    <glyph glyph-name="quotedblright" unicode="&#x201d;" horiz-adv-x="803" 
d="M187 276h-77l113 201h-59q-34 0 -44 8t-10 36v115q0 28 10 36t44 8h126q34 0 44 -8t10 -36v-162zM536 276h-77l113 201h-59q-34 0 -44 8t-10 36v115q0 28 10 36t44 8h126q34 0 44 -8t10 -36v-162z" />
    <glyph glyph-name="quotedblbase" unicode="&#x201e;" horiz-adv-x="803" 
d="M187 -181h-77l113 201h-59q-34 0 -44 8t-10 36v115q0 28 10 36t44 8h126q34 0 44 -8t10 -36v-162zM536 -181h-77l113 201h-59q-34 0 -44 8t-10 36v115q0 28 10 36t44 8h126q34 0 44 -8t10 -36v-162z" />
    <glyph glyph-name="dagger" unicode="&#x2020;" horiz-adv-x="653" 
d="M207 698h240l-46 -195q24 6 50 12t51.5 12t49 11.5t41.5 9.5v-195l-191 45q4 -16 9 -35.5t10 -39.5t9.5 -39.5t8.5 -34.5q-17 -88 -29 -178t-20 -190h-122q-8 97 -22 188.5t-31 176.5l38 155q-24 -6 -50.5 -12t-52 -12t-49 -11.5t-41.5 -9.5v190l193 -42z" />
    <glyph glyph-name="daggerdbl" unicode="&#x2021;" horiz-adv-x="659" 
d="M400 181q24 6 50.5 12t52 12t49 11.5t41.5 9.5v-190l-193 42l46 -194h-240l46 195q-24 -6 -50.5 -12t-52 -12t-48.5 -11.5t-41 -9.5v195l191 -45q-5 16 -8 28.5t-5.5 24.5t-5.5 24.5t-7 27.5l28 115q-24 -6 -50.5 -12t-52 -12t-49 -11.5t-41.5 -9.5v190l193 -42l-46 194
h240l-46 -195q24 6 50 12t51.5 12t49 11.5t41.5 9.5v-195l-191 45q9 -32 13 -56.5t12 -55.5z" />
    <glyph glyph-name="bullet" unicode="&#x2022;" horiz-adv-x="382" 
d="M60 270q0 27 10 51t27.5 42t41.5 28t51 10q28 0 52 -10t42 -28t28 -42t10 -51q0 -28 -10 -52t-28 -41.5t-42 -27.5t-52 -10q-27 0 -51 10t-41.5 27.5t-27.5 41.5t-10 52z" />
    <glyph glyph-name="ellipsis" unicode="&#x2026;" horiz-adv-x="1000" 
d="M615 44q0 -28 -10 -36t-44 -8h-122q-34 0 -44 8t-10 36v135q0 28 10 36t44 8h122q34 0 44 -8t10 -36v-135zM307 44q0 -28 -10 -36t-44 -8h-122q-34 0 -44 8t-10 36v135q0 28 10 36t44 8h122q34 0 44 -8t10 -36v-135zM923 44q0 -28 -10 -36t-44 -8h-122q-34 0 -44 8
t-10 36v135q0 28 10 36t44 8h122q34 0 44 -8t10 -36v-135z" />
    <glyph glyph-name="perthousand" unicode="&#x2030;" horiz-adv-x="1911" 
d="M1002 690l-442 -700h-189l443 700h188zM518 427q0 -28 -6.5 -50.5t-21.5 -38.5t-41 -24.5t-65 -8.5h-160q-39 0 -65 8.5t-41.5 24.5t-21.5 38.5t-6 50.5v135q0 28 5.5 50t20.5 37t40.5 23t66.5 8h160q40 0 66 -8t41.5 -23t21.5 -37t6 -50v-135zM371 438v118h-133v-118
h133zM1284 122q0 -28 -6.5 -50.5t-21.5 -38.5t-41 -24.5t-65 -8.5h-160q-39 0 -65 8.5t-41.5 24.5t-21.5 38.5t-6 50.5v135q0 28 5.5 50t20.5 37t40.5 23t66.5 8h160q40 0 66 -8t41.5 -23t21.5 -37t6 -50v-135zM1137 133v118h-133v-118h133zM1821 122q0 -28 -6.5 -50.5
t-21.5 -38.5t-41 -24.5t-65 -8.5h-160q-39 0 -65 8.5t-41.5 24.5t-21.5 38.5t-6 50.5v135q0 28 5.5 50t20.5 37t40.5 23t66.5 8h160q40 0 66 -8t41.5 -23t21.5 -37t6 -50v-135zM1674 133v118h-133v-118h133z" />
    <glyph glyph-name="guilsinglleft" unicode="&#x2039;" horiz-adv-x="452" 
d="M417 482l-151 -212l151 -213h-194l-153 213l153 212h194z" />
    <glyph glyph-name="guilsinglright" unicode="&#x203a;" horiz-adv-x="454" 
d="M230 482l154 -212l-155 -213h-194l153 213l-152 212h194z" />
    <glyph glyph-name="Euro" unicode="&#x20ac;" 
d="M550 690q62 0 113 -1.5t97 -6t91 -12t96 -19.5l-40 -141q-73 14 -143 21.5t-146 7.5q-60 0 -101 -5t-66.5 -14.5t-39.5 -22.5t-20 -29h503l-30 -105h-471v-47h457l-30 -105h-424q5 -19 19 -34t40.5 -25t68.5 -15.5t102 -5.5q99 0 185 12.5t143 24.5l-56 -161
q-37 -7 -71 -12t-71 -8.5t-79 -5t-95 -1.5q-89 0 -160 11t-123 37.5t-83.5 71t-41.5 111.5h-114l27 106h83v47h-110l27 104h84q8 61 40 103t82.5 68.5t116 38.5t140.5 12z" />
    <glyph glyph-name="trademark" unicode="&#x2122;" horiz-adv-x="1429" 
d="M382 305h-148v301h-174v114h492v-114h-170v-301zM705 720h146l175 -205q41 51 81.5 102.5t81.5 102.5h140v-415h-133v232q-15 -20 -34.5 -44.5t-40 -49t-39.5 -48.5t-34 -44h-64l-151 181l4 -227h-132v415z" />
    <glyph glyph-name="uniE300" unicode="&#xe300;" horiz-adv-x="439" 
d="M247 947l117 -186h-168l-173 186h224z" />
    <glyph glyph-name="uniE301" unicode="&#xe301;" horiz-adv-x="439" 
d="M404 947l-173 -186h-168l117 186h224z" />
    <glyph glyph-name="uniE302" unicode="&#xe302;" horiz-adv-x="439" 
d="M109 947h222l170 -186h-195l-87 104l-87 -104h-194z" />
    <glyph glyph-name="uniE303" unicode="&#xe303;" horiz-adv-x="439" 
d="M330 761h-222l-170 186h195l87 -104l87 104h194z" />
    <glyph glyph-name="uniE304" unicode="&#xe304;" horiz-adv-x="451" 
d="M476 960q0 -35 -12.5 -69t-35 -61t-54 -44t-69.5 -17q-29 0 -52 7.5t-44 16.5t-41 16.5t-43 7.5q-45 0 -45 -56h-120q2 37 15.5 71.5t36 60.5t54 42t69.5 16q29 0 51 -7t41 -16t37.5 -16t40.5 -7q21 0 32.5 11t12.5 44h126z" />
    <glyph glyph-name="uniE305" unicode="&#xe305;" horiz-adv-x="541" 
d="M12 916h197v-151h-197v151zM332 916h197v-151h-197v151z" />
    <glyph glyph-name="uniE308" unicode="&#xe308;" horiz-adv-x="500" 
d="M-161 905q0 30 12 56t33.5 45.5t51 30.5t64.5 11t64.5 -11t51 -30.5t33.5 -45.5t12 -56t-12 -56t-33.5 -45.5t-51 -31t-64.5 -11.5t-64.5 11.5t-51 31t-33.5 45.5t-12 56zM-44 905q0 -21 11.5 -36.5t32.5 -15.5t32.5 15.5t11.5 36.5q0 22 -11.5 37t-32.5 15t-32.5 -15
t-11.5 -37z" />
    </font>
</defs>
</svg>
